<svg width="29" height="28" viewBox="0 0 29 28" fill="none" xmlns="http://www.w3.org/2000/svg">
<path d="M12.6907 23.7439C15.3031 23.7434 17.8403 22.8722 19.8981 21.2691L26.3682 27.7142L28.4493 25.6411L21.9793 19.1959C23.5894 17.1458 24.4645 14.6178 24.4652 12.0148C24.4652 5.54763 19.1828 0.285645 12.6907 0.285645C6.19857 0.285645 0.91626 5.54763 0.91626 12.0148C0.91626 18.4819 6.19857 23.7439 12.6907 23.7439ZM12.6907 3.21793C17.5609 3.21793 21.5215 7.16331 21.5215 12.0148C21.5215 16.8662 17.5609 20.8116 12.6907 20.8116C7.8205 20.8116 3.85987 16.8662 3.85987 12.0148C3.85987 7.16331 7.8205 3.21793 12.6907 3.21793Z" fill="white"/>
</svg>
