<svg width="48" height="49" viewBox="0 0 48 49" fill="none" xmlns="http://www.w3.org/2000/svg">
<rect width="48" height="48" transform="translate(0 0.0102539)" fill="white"/>
<path d="M43.8525 8.21387C43.6771 8.03856 43.4362 7.93909 43.1895 7.93909C42.942 7.93909 42.7011 8.03856 42.5257 8.21387C42.3514 8.38815 42.252 8.62918 42.252 8.87668C42.252 9.12325 42.3514 9.36521 42.5257 9.53959C42.701 9.71396 42.942 9.81428 43.1895 9.81428C43.4361 9.81428 43.6771 9.71406 43.8525 9.53959C44.0268 9.36521 44.1262 9.12334 44.1262 8.87668C44.1262 8.62918 44.0268 8.38815 43.8525 8.21387Z" fill="#2E65B7"/>
<path d="M22.3193 30.2946C22.144 30.1192 21.903 30.0198 21.6563 30.0198C21.4088 30.0198 21.1678 30.1192 20.9925 30.2946C20.8182 30.4688 20.7188 30.7099 20.7188 30.9574C20.7188 31.2039 20.8182 31.4458 20.9925 31.6203C21.1678 31.7947 21.4088 31.895 21.6563 31.895C21.9029 31.895 22.1439 31.7947 22.3193 31.6203C22.4936 31.4459 22.593 31.204 22.593 30.9574C22.5931 30.7099 22.4937 30.4688 22.3193 30.2946Z" fill="#2E65B7"/>
<path d="M46.1235 11.3276C45.8675 10.8775 45.2949 10.7201 44.845 10.9761C44.3949 11.232 44.2375 11.8045 44.4935 12.2545C47.2785 17.1519 46.4377 23.3581 42.4488 27.3469L41.7379 28.0578C41.5662 27.6072 41.3001 27.1844 40.9376 26.822L31.3042 17.1887C31.9342 16.8788 32.5163 16.4652 33.0273 15.9542L34.875 14.1065C35.2411 13.7404 35.2411 13.1467 34.875 12.7806C34.5088 12.4145 33.9152 12.4145 33.549 12.7806L31.7013 14.6283C30.8333 15.4962 29.6793 15.9743 28.4519 15.9743H24.7584C24.5098 15.9743 24.2714 16.0731 24.0954 16.2489L21.2679 19.0764C20.4283 19.9161 19.062 19.9161 18.2224 19.0764C17.3827 18.2367 17.3827 16.8705 18.2224 16.0309L24.6777 9.57573C28.6226 5.63072 34.7813 4.76316 39.654 7.46598C40.1068 7.71695 40.6775 7.55373 40.9287 7.10082C41.1798 6.64801 41.0163 6.07726 40.5635 5.8261C37.8759 4.33557 34.7094 3.73903 31.6468 4.14694C28.7806 4.5286 26.1572 5.72869 24.0068 7.63295C21.365 5.29097 18.0019 4.01025 14.4413 4.01025C10.5838 4.01025 6.95739 5.51241 4.22973 8.23998C1.50207 10.9675 0 14.5943 0 18.4516C0 22.3091 1.50216 25.9355 4.22973 28.6632L4.58307 29.0165C4.64457 29.0779 4.71282 29.1282 4.78491 29.169C4.84763 29.9801 5.18748 30.7736 5.80651 31.3925C6.49548 32.0814 7.39998 32.4256 8.30476 32.4256C8.35173 32.4256 8.39879 32.4241 8.44576 32.4223C8.44389 32.4697 8.4423 32.5171 8.4423 32.5649C8.4423 33.5085 8.8098 34.3958 9.47711 35.0631C10.1661 35.752 11.0706 36.0963 11.9754 36.0962C12.0223 36.0962 12.0694 36.0947 12.1164 36.0929C12.1145 36.1403 12.1129 36.1877 12.1129 36.2355C12.1129 37.1791 12.4804 38.0664 13.1478 38.7337C13.8367 39.4225 14.7414 39.7668 15.6461 39.7668C15.6936 39.7668 15.7411 39.7653 15.7887 39.7635C15.7506 40.7151 16.0934 41.6794 16.8184 42.4045C17.4858 43.0718 18.3731 43.4393 19.3167 43.4393C20.2604 43.4393 21.1477 43.0718 21.8149 42.4045L23.1253 41.0941L24.8952 42.8638C25.5625 43.5312 26.4497 43.8987 27.3934 43.8987C28.3371 43.8987 29.2244 43.5312 29.8917 42.8639C30.6254 42.1302 30.9681 41.1513 30.9203 40.1885C30.9792 40.1914 31.0382 40.1931 31.0972 40.1931C32.002 40.1931 32.9069 39.8488 33.5956 39.1599C34.3202 38.4353 34.6631 37.4717 34.6254 36.5206C34.6728 36.5224 34.7203 36.524 34.768 36.524C35.7117 36.524 36.5989 36.1565 37.2662 35.4892C37.9908 34.7646 38.3337 33.8011 38.296 32.8499C38.3434 32.8517 38.3909 32.8533 38.4386 32.8533C39.3823 32.8533 40.2695 32.4858 40.9368 31.8185C41.2758 31.4796 41.5309 31.0881 41.7031 30.6703C41.7943 30.6258 41.8801 30.5667 41.9559 30.4909L43.7741 28.6727C48.3586 24.0892 49.3244 16.9565 46.1235 11.3276ZM8.30486 30.5521C7.86198 30.5521 7.44564 30.3797 7.13242 30.0665C6.81929 29.7534 6.64679 29.337 6.64679 28.8942C6.64679 28.4514 6.8192 28.0349 7.13242 27.7218L8.74811 26.1061C9.06123 25.7929 9.47767 25.6205 9.92055 25.6205C10.3633 25.6205 10.7798 25.7929 11.0929 26.1061C11.7394 26.7526 11.7394 27.8044 11.0929 28.4508L9.4772 30.0666C9.16408 30.3796 8.74783 30.5521 8.30486 30.5521ZM10.8033 33.7373C10.4901 33.4242 10.3177 33.0077 10.3177 32.565C10.3177 32.1221 10.4901 31.7057 10.8033 31.3926L12.4191 29.7768C12.4191 29.7768 12.4191 29.7768 12.4191 29.7767C12.7322 29.4636 13.1486 29.2911 13.5914 29.2911C14.0342 29.2911 14.4506 29.4635 14.7638 29.7767C15.4103 30.4232 15.4103 31.475 14.7638 32.1214L13.1481 33.7372C12.5015 34.3836 11.4494 34.3836 10.8033 33.7373ZM14.4739 37.4079C14.1607 37.0948 13.9883 36.6783 13.9883 36.2356C13.9883 35.7927 14.1607 35.3763 14.4739 35.0632L16.0897 33.4474C16.0897 33.4474 16.0897 33.4474 16.0897 33.4473C16.4028 33.1342 16.8192 32.9617 17.262 32.9617C17.7049 32.9617 18.1212 33.1341 18.4344 33.4473C19.0809 34.0939 19.0809 35.1457 18.4344 35.7921L16.8186 37.4079C16.1722 38.0544 15.1204 38.0544 14.4739 37.4079ZM22.1051 39.4629L20.4893 41.0788C20.1762 41.3919 19.7598 41.5644 19.3169 41.5644C18.8742 41.5644 18.4577 41.392 18.1446 41.0788C17.4981 40.4322 17.4981 39.3804 18.1446 38.734L19.7604 37.1182C19.7604 37.1182 19.7604 37.1182 19.7604 37.1181C20.0735 36.805 20.4898 36.6325 20.9327 36.6325C21.3755 36.6325 21.7919 36.8049 22.1051 37.1181C22.4183 37.4312 22.5907 37.8477 22.5907 38.2905C22.5908 38.7335 22.4183 39.1498 22.1051 39.4629ZM39.6116 30.4926C39.2985 30.8058 38.882 30.9782 38.4393 30.9782C37.9964 30.9782 37.58 30.8058 37.2669 30.4926L33.3644 26.5901C33.3642 26.5899 33.3641 26.5898 33.3639 26.5896L29.6936 22.9193C29.3274 22.5532 28.7339 22.5532 28.3676 22.9193C28.0015 23.2854 28.0015 23.8791 28.3676 24.2452L35.9409 31.8183C36.5874 32.4649 36.5874 33.5167 35.9409 34.1631C35.6278 34.4763 35.2113 34.6487 34.7686 34.6487C34.3257 34.6487 33.9093 34.4763 33.5962 34.1631L26.0229 26.5899C25.6567 26.2239 25.0632 26.2239 24.6969 26.5899C24.3308 26.956 24.3308 27.5497 24.6969 27.9159L28.3668 31.5857C28.3671 31.586 28.3674 31.5864 28.3677 31.5867L32.2703 35.4891C32.9168 36.1357 32.9168 37.1876 32.2704 37.834C31.6238 38.4805 30.5718 38.4805 29.9256 37.834L26.023 33.9314C25.9508 33.8593 25.8697 33.8019 25.7834 33.7582L24.6703 32.6451C24.3041 32.2791 23.7105 32.2791 23.3443 32.6451C22.9782 33.0112 22.9782 33.6049 23.3443 33.9711L28.5663 39.193C29.2128 39.8396 29.2128 40.8914 28.5663 41.5378C28.2532 41.851 27.8368 42.0234 27.394 42.0234C26.9511 42.0234 26.5348 41.851 26.2216 41.5378L24.2345 39.5508C24.3859 39.1535 24.466 38.7282 24.466 38.2904C24.466 37.3467 24.0985 36.4594 23.4312 35.7921C22.7638 35.1248 21.8765 34.7573 20.9329 34.7573C20.8852 34.7573 20.8378 34.7589 20.7903 34.7608C20.8279 33.8096 20.4852 32.846 19.7606 32.1214C19.0932 31.4541 18.2059 31.0866 17.2623 31.0866C17.2146 31.0866 17.1672 31.0882 17.1197 31.0901C17.1574 30.1389 16.8146 29.1753 16.09 28.4507C15.4226 27.7834 14.5353 27.4159 13.5917 27.4159C13.544 27.4159 13.4966 27.4175 13.4491 27.4194C13.4868 26.4682 13.144 25.5046 12.4194 24.78C11.0418 23.4025 8.80014 23.4026 7.42257 24.78L5.80688 26.3957C5.60307 26.5995 5.43029 26.8226 5.28666 27.0586C3.08438 24.7195 1.87557 21.6785 1.87557 18.4514C1.87557 15.0949 3.18263 11.9392 5.5562 9.56579C7.92957 7.19241 11.0854 5.88526 14.4418 5.88526C17.4921 5.88526 20.3764 6.96488 22.6585 8.9432L16.8969 14.7048C16.136 15.4658 15.7169 16.4774 15.7169 17.5535C15.7169 18.6297 16.136 19.6413 16.8969 20.4023C17.6823 21.1876 18.714 21.5803 19.7457 21.5803C20.7773 21.5803 21.809 21.1877 22.5944 20.4023L25.1474 17.8493H28.4524C28.7253 17.8493 28.9952 17.8306 29.2619 17.7975L39.6122 28.1476C40.258 28.7944 40.258 29.8463 39.6116 30.4926Z" fill="#2E65B7"/>
</svg>
