<svg width="52" height="49" viewBox="0 0 52 49" fill="none" xmlns="http://www.w3.org/2000/svg">
<rect width="51.4114" height="48" transform="translate(0 0.0102539)" fill="white"/>
<path d="M12.0632 15.0154L18.0526 18.4734C18.3811 18.6631 18.7461 18.76 19.1165 18.76C19.303 18.76 19.4908 18.7354 19.6759 18.6858C20.2289 18.5377 20.6903 18.1841 20.9755 17.6903L25.2693 10.2531L27.3406 13.8407L26.1989 14.4997C25.8651 14.6925 25.674 15.062 25.7096 15.4458C25.7451 15.8296 26.001 16.1575 26.3646 16.2856L36.3884 19.8153C36.4949 19.8529 36.6057 19.8714 36.7162 19.8714C36.8876 19.8714 37.058 19.8268 37.2097 19.7391C37.4593 19.5951 37.6334 19.3492 37.6864 19.066L39.6414 8.62032C39.7124 8.24138 39.5562 7.85583 39.2415 7.63315C38.9269 7.41027 38.5115 7.39112 38.1777 7.58379L37.0361 8.24287L33.756 2.56145C32.8231 0.945607 31.8233 0.0102539 29.4734 0.0102539H21.0653C18.7155 0.0102539 17.7157 0.945706 16.7828 2.56155L16.4106 3.20621C16.1379 3.67833 16.2997 4.28202 16.7718 4.55456C16.9273 4.64428 17.097 4.68692 17.2644 4.68692C17.6055 4.68692 17.9374 4.50984 18.1202 4.19319L18.4924 3.54853C19.0833 2.52513 19.4952 2.10671 20.5093 2.00849L24.1296 8.27899L19.2659 16.7032C19.2384 16.7509 19.1958 16.7707 19.165 16.779C19.1343 16.7872 19.0875 16.7913 19.0397 16.7638L13.0502 13.3058C13.0026 13.2782 12.9826 13.2358 12.9744 13.205C12.9662 13.1741 12.9621 13.1274 12.9895 13.0797L13.6777 11.8878C13.9504 11.4157 13.7886 10.8121 13.3165 10.5395C12.8443 10.2669 12.2408 10.4287 11.9681 10.9008L11.2799 12.0928C10.9948 12.5866 10.9195 13.163 11.0675 13.716C11.2157 14.2688 11.5693 14.7303 12.0632 15.0154ZM29.4733 1.98431C30.9128 1.98431 31.3576 2.35574 32.0461 3.54843L35.8198 10.0847C36.0925 10.5567 36.696 10.7184 37.1682 10.446L37.306 10.3664L35.9577 17.5706L29.0445 15.1362L29.1823 15.0566C29.4091 14.9257 29.5745 14.7101 29.6422 14.4572C29.7099 14.2043 29.6745 13.9348 29.5436 13.7082L22.7749 1.98431H29.4733Z" fill="#2E65B7"/>
<path d="M20.323 33.6948H11.7353L13.8066 30.1072L14.9482 30.7663C15.2821 30.959 15.6976 30.9397 16.0121 30.717C16.3268 30.4944 16.4829 30.1088 16.412 29.7299L14.4569 19.2841C14.4039 19.0009 14.2297 18.755 13.9802 18.6109C13.7308 18.4668 13.4306 18.4389 13.1589 18.5347L3.13509 22.0645C2.77146 22.1926 2.5157 22.5206 2.48007 22.9043C2.44444 23.2882 2.63554 23.6576 2.96936 23.8504L4.11092 24.5095L0.830864 30.191C-0.102022 31.8069 -0.412359 33.1404 0.762657 35.1754L4.96671 42.457C6.14163 44.4921 7.45168 44.8902 9.31735 44.8902H20.323C21.5027 44.8902 22.4626 43.9303 22.4626 42.7505V35.8345C22.4626 34.6546 21.5027 33.6948 20.323 33.6948ZM2.54058 31.1781L6.31417 24.6418C6.5868 24.1697 6.42502 23.566 5.9529 23.2934L5.81501 23.2138L12.7284 20.7793L14.0767 27.9835L13.9388 27.9039C13.4666 27.6312 12.8629 27.7931 12.5905 28.2652L5.82152 39.9893L2.47227 34.1883C1.7526 32.9417 1.8519 32.3709 2.54058 31.1781ZM20.4885 42.7505C20.4885 42.8387 20.4112 42.916 20.323 42.916H9.31735C8.13562 42.916 7.56736 42.7686 6.97522 41.9394L10.5955 35.6689H20.323C20.4112 35.6689 20.4885 35.7463 20.4885 35.8344V42.7505Z" fill="#2E65B7"/>
<path d="M49.7076 30.191L44.2048 20.6598C43.6146 19.638 42.3035 19.2868 41.282 19.8767L35.2925 23.3347C34.2709 23.9245 33.9195 25.2356 34.5093 26.2576L38.803 33.6947H34.6605V32.3764C34.6605 31.991 34.4361 31.6408 34.0859 31.4797C33.7358 31.3185 33.3238 31.3761 33.031 31.627L24.9624 38.5428C24.7435 38.7304 24.6177 39.0041 24.6177 39.2923C24.6177 39.5805 24.7435 39.8542 24.9624 40.0418L33.031 46.9577C33.2135 47.1141 33.4422 47.1953 33.6736 47.1953C33.8133 47.1953 33.9539 47.1657 34.0858 47.105C34.4361 46.9439 34.6605 46.5937 34.6605 46.2083L34.6606 44.89H41.221C43.0867 44.89 44.3968 44.4919 45.5716 42.457L49.7757 35.1753C49.7758 35.1752 49.7758 35.175 49.7759 35.1749C50.9507 33.1401 50.6405 31.8066 49.7076 30.191ZM36.2191 25.2706C36.175 25.1942 36.2033 25.0884 36.2796 25.0443L42.2692 21.5863C42.3453 21.5421 42.4512 21.5706 42.4952 21.6469L47.998 31.178C48.5886 32.2011 48.7439 32.7677 48.3223 33.6947H41.0827L36.2191 25.2706ZM43.8621 41.4698C43.1423 42.7164 42.5984 42.9158 41.2211 42.9158H33.6737C33.1286 42.9158 32.6866 43.3577 32.6866 43.9027V44.0621L27.1216 39.2922L32.6864 34.5225V34.6817C32.6864 35.2268 33.1284 35.6687 33.6735 35.6687H47.2113L43.8621 41.4698Z" fill="#2E65B7"/>
<path d="M15.0447 8.53409C15.5898 8.53409 16.0318 8.09218 16.0318 7.54701C16.0318 7.00185 15.5898 6.55994 15.0447 6.55994H15.0441C14.499 6.55994 14.0574 7.00185 14.0574 7.54701C14.0574 8.09218 14.4997 8.53409 15.0447 8.53409Z" fill="#2E65B7"/>
</svg>
