<svg width="48" height="49" viewBox="0 0 48 49" fill="none" xmlns="http://www.w3.org/2000/svg">
<rect width="48" height="48" transform="translate(0 0.0102539)" fill="white"/>
<path d="M47.2954 41.335H45.7456V39.0337C45.7456 38.6444 45.4303 38.3291 45.041 38.3291H43.4912V19.9021C44.8154 19.3348 45.7456 18.019 45.7456 16.4897V13.4839C45.7456 13.4835 45.7456 13.4828 45.7456 13.4824C45.7456 13.4802 45.7452 13.478 45.7452 13.4758C45.7449 13.4513 45.7434 13.4268 45.7405 13.403C45.7397 13.396 45.7383 13.389 45.7375 13.3821C45.7346 13.3623 45.731 13.3425 45.7266 13.3228C45.7247 13.3158 45.7229 13.3088 45.7211 13.3015C45.7156 13.2814 45.7094 13.262 45.7024 13.2426C45.7009 13.2385 45.7002 13.2349 45.6987 13.2308L41.9414 3.46179C41.8367 3.1897 41.5752 3.01025 41.2837 3.01025H6.71631C6.4248 3.01025 6.16333 3.1897 6.05859 3.46179L2.30127 13.2308C2.2998 13.2349 2.29907 13.2389 2.29761 13.2426C2.29065 13.262 2.28442 13.2817 2.27893 13.3019C2.2771 13.3088 2.27527 13.3158 2.2738 13.3231C2.26904 13.3425 2.26538 13.3623 2.26245 13.3824C2.26172 13.3894 2.26025 13.396 2.25952 13.403C2.25659 13.4271 2.25513 13.4513 2.25476 13.4762V13.4828C2.25476 13.4832 2.25439 13.4835 2.25439 13.4839V16.4897C2.25439 18.019 3.18457 19.3352 4.50879 19.9021V38.3291H2.95898C2.5697 38.3291 2.25439 38.6444 2.25439 39.0337V41.335H0.70459C0.315308 41.335 0 41.6503 0 42.0396V45.0454C0 45.4347 0.315308 45.75 0.70459 45.75H47.2954C47.6847 45.75 48 45.4347 48 45.0454V42.0396C48 41.6503 47.6847 41.335 47.2954 41.335ZM44.3364 16.4897C44.3364 17.7587 43.3044 18.791 42.0352 18.791C40.7662 18.791 39.7339 17.7587 39.7339 16.4897V14.1881H44.3364V16.4897ZM38.3247 16.4897C38.3247 17.7587 37.2924 18.791 36.0234 18.791C34.7545 18.791 33.7222 17.7587 33.7222 16.4897V14.1881H38.3247V16.4897ZM32.313 16.4897C32.313 17.7587 31.2806 18.791 30.0117 18.791C28.7428 18.791 27.7104 17.7587 27.7104 16.4897V14.1881H32.313V16.4897ZM26.3013 16.4897C26.3013 17.7587 25.2689 18.791 24 18.791C22.7311 18.791 21.6987 17.7587 21.6987 16.4897V14.1881H26.3013V16.4897ZM20.2896 16.4897C20.2896 17.7587 19.2572 18.791 17.9883 18.791C16.7194 18.791 15.687 17.7587 15.687 16.4897V14.1881H20.2896V16.4897ZM14.2778 16.4897C14.2778 17.7587 13.2455 18.791 11.9766 18.791C10.7076 18.791 9.67529 17.7587 9.67529 16.4897V14.1881H14.2778V16.4897ZM16.3513 4.41907L14.4221 12.7793H9.8562L11.7854 4.41907H16.3513ZM25.6022 4.41907L26.2452 12.7793H21.7548L22.3978 4.41907H25.6022ZM36.2146 4.41907L38.1438 12.7793H33.5779L31.6487 4.41907H36.2146ZM40.7999 4.41907L44.0153 12.7793H39.59L37.6604 4.41907H40.7999ZM30.2029 4.41907L32.1321 12.7793H27.6581L27.015 4.41907H30.2029ZM20.985 4.41907L20.3416 12.7793H15.8679L17.7971 4.41907H20.985ZM7.20007 4.41907H10.3396L8.41003 12.7793H3.98474L7.20007 4.41907ZM3.66357 16.4897V14.1881H8.26611V16.4897C8.26611 17.7587 7.23376 18.791 5.96484 18.791C4.69556 18.791 3.66357 17.7587 3.66357 16.4897ZM3.66357 39.7383H32.7045C33.0938 39.7383 33.4091 39.423 33.4091 39.0337C33.4091 38.6444 33.0938 38.3291 32.7045 38.3291H17.9414V22.5015C17.9414 22.1122 17.6261 21.7969 17.2368 21.7969H8.21924C7.82996 21.7969 7.51465 22.1122 7.51465 22.5015V38.3291H5.91797V20.1987C5.93335 20.1991 5.9491 20.1998 5.96484 20.1998C7.20044 20.1998 8.29578 19.5923 8.9707 18.661C9.64526 19.5923 10.741 20.1998 11.9766 20.1998C13.2122 20.1998 14.3075 19.5923 14.9824 18.661C15.657 19.5923 16.7527 20.1998 17.9883 20.1998C19.2239 20.1998 20.3196 19.5923 20.9941 18.661C21.6687 19.5923 22.7644 20.1998 24 20.1998C25.2356 20.1998 26.3313 19.5923 27.0059 18.661C27.6804 19.5923 28.7761 20.1998 30.0117 20.1998C31.2473 20.1998 32.343 19.5923 33.0176 18.661C33.6925 19.5923 34.7878 20.1998 36.0234 20.1998C37.259 20.1998 38.3547 19.5923 39.0293 18.661C39.7042 19.5923 40.7996 20.1998 42.0352 20.1998C42.0509 20.1998 42.0667 20.1991 42.082 20.1987V38.3291H36.0234C35.6342 38.3291 35.3188 38.6444 35.3188 39.0337C35.3188 39.423 35.6342 39.7383 36.0234 39.7383H44.3364V41.335H3.66357V39.7383ZM16.5322 38.3291H8.92383V23.2057H16.5322V38.3291ZM46.5908 44.3408H1.40918V42.7441H46.5908V44.3408Z" fill="#2E65B7"/>
<path d="M36.0487 33.7734V22.5015C36.0487 22.1122 35.7679 21.7969 35.4213 21.7969H18.0243C17.6777 21.7969 17.397 22.1122 17.397 22.5015V33.7734C17.397 34.1624 17.6777 34.478 18.0243 34.478H35.4213C35.7679 34.478 36.0487 34.1624 36.0487 33.7734ZM34.7939 33.0688H18.6517V23.2057H34.7939V33.0688Z" fill="#2E65B7"/>
<path d="M13.9679 30.0161C13.9679 30.405 13.6868 30.7207 13.3405 30.7207C12.9939 30.7207 12.7131 30.405 12.7131 30.0161C12.7131 29.6268 12.9939 29.3115 13.3405 29.3115C13.6868 29.3115 13.9679 29.6268 13.9679 30.0161Z" fill="#2E65B7"/>
<path d="M26.0536 29.9692C27.1342 29.9692 28.0136 29.4415 28.5957 28.4663H30.0683C30.783 28.4663 31.3647 27.813 31.3647 27.0103V26.2588C31.3647 25.4557 30.783 24.8027 30.0683 24.8027H23.3771C23.0305 24.8027 22.7498 25.118 22.7498 25.5073C22.7498 25.5513 22.7543 26.5942 23.1293 27.6475C23.6624 29.1445 24.701 29.9692 26.0536 29.9692ZM30.11 26.2588V27.0103C30.11 27.0359 30.0914 27.0571 30.0683 27.0571H29.1536C29.2293 26.7477 29.2769 26.4562 29.3065 26.2115H30.0683C30.0914 26.2115 30.11 26.2328 30.11 26.2588ZM28.0374 26.2115C27.9954 26.484 27.9263 26.8063 27.8131 27.1241C27.4691 28.0906 26.8936 28.5601 26.0536 28.5601C24.6407 28.5601 24.2018 27.1146 24.0658 26.2115H28.0374Z" fill="#2E65B7"/>
<path d="M28.7301 30.063H24.0463C23.6997 30.063 23.4189 30.3783 23.4189 30.7676C23.4189 31.1565 23.6997 31.4722 24.0463 31.4722H28.7301C29.0767 31.4722 29.3575 31.1565 29.3575 30.7676C29.3575 30.3783 29.0767 30.063 28.7301 30.063Z" fill="#2E65B7"/>
</svg>
