<svg width="48" height="49" viewBox="0 0 48 49" fill="none" xmlns="http://www.w3.org/2000/svg">
<g clip-path="url(#clip0)">
<rect width="48.0001" height="48" transform="translate(0 0.0102539)" fill="white"/>
<g clip-path="url(#clip1)">
<path d="M44.8011 24.8073H35.4979C35.5792 24.629 35.6451 24.4411 35.6935 24.2441L35.7092 24.18C35.8323 23.6772 35.5247 23.1696 35.0219 23.0462C34.5187 22.9239 34.0111 23.2308 33.8881 23.734L33.8723 23.7977C33.6987 24.507 32.981 24.9432 32.2712 24.7689L16.79 20.9768C16.4465 20.8925 16.1565 20.6798 15.973 20.3773C15.7896 20.0751 15.735 19.7192 15.8192 19.3757L19.611 3.89448C19.6952 3.55097 19.908 3.26093 20.2104 3.07746C20.5129 2.89435 20.8685 2.83942 21.2124 2.92365L36.6932 6.71576C37.4026 6.88935 37.838 7.60785 37.6644 8.31684L35.5865 16.8001C35.4635 17.3029 35.7711 17.8101 36.2739 17.9335C36.7764 18.0569 37.2843 17.749 37.4077 17.2462L39.4856 8.76288C39.9053 7.04975 38.8528 5.31427 37.1396 4.8946L21.6584 1.10248C19.9453 0.682805 18.2098 1.7353 17.7902 3.4488L13.998 18.9296C13.7948 19.7598 13.9266 20.6193 14.3698 21.3496C14.4327 21.4536 14.5016 21.5524 14.5748 21.6476H3.19885C1.43518 21.6476 0 23.0825 0 24.8465V40.7855C0 42.5495 1.43518 43.9843 3.19885 43.9843H19.1378C20.9019 43.9843 22.337 42.5495 22.337 40.7855V24.8465C22.337 24.6436 22.3173 24.4448 22.2806 24.2521L26.9996 25.4079C26.191 25.9891 25.663 26.9372 25.663 28.0065V43.9455C25.663 45.7092 27.0981 47.1444 28.8622 47.1444H44.8011C46.5648 47.1444 48 45.7092 48 43.9455V28.0065C48 26.2425 46.5648 24.8073 44.8011 24.8073ZM20.462 40.7855C20.462 41.5153 19.868 42.1093 19.1378 42.1093H3.19885C2.46899 42.1093 1.875 41.5153 1.875 40.7855V24.8465C1.875 24.1166 2.46899 23.5226 3.19885 23.5226H19.1378C19.868 23.5226 20.462 24.1166 20.462 24.8465V40.7855ZM46.125 43.9451C46.125 44.6754 45.531 45.2694 44.8011 45.2694H28.8622C28.132 45.2694 27.538 44.6754 27.538 43.9451V28.0065C27.538 27.2763 28.132 26.6823 28.8622 26.6823H44.8011C45.531 26.6823 46.125 27.2763 46.125 28.0065V43.9451Z" fill="#2E65B7"/>
<path d="M17.7754 25.2336H4.5614C4.02417 25.2336 3.58691 25.6709 3.58691 26.2078V28.1945C3.58691 28.7123 4.00696 29.132 4.52441 29.132C5.04224 29.132 5.46191 28.7123 5.46191 28.1945V27.1086H16.8745V38.5212H5.46228V35.318C5.46228 34.8002 5.04224 34.3805 4.52478 34.3805C4.00696 34.3805 3.58728 34.8002 3.58728 35.318V39.4221C3.58728 39.959 4.02417 40.3962 4.5614 40.3962H17.7754C18.3126 40.3962 18.7495 39.9593 18.7495 39.4221V26.2078C18.7495 25.6709 18.3126 25.2336 17.7754 25.2336Z" fill="#2E65B7"/>
<path d="M43.4384 28.3939H30.2244C29.6871 28.3939 29.2502 28.8308 29.2502 29.368V42.582C29.2502 43.1193 29.6871 43.5565 30.2244 43.5565H43.4384C43.9756 43.5565 44.4128 43.1193 44.4128 42.582V29.368C44.4125 28.8308 43.9756 28.3939 43.4384 28.3939ZM42.5375 41.6815H31.1252V30.2689H42.5375V41.6815Z" fill="#2E65B7"/>
<path d="M35.5637 8.49517C35.4289 8.27325 35.2162 8.11651 34.9628 8.05426L22.1256 4.90997C21.6059 4.78399 21.0786 5.10443 20.9501 5.62481L17.8069 18.4583C17.678 18.9798 17.9977 19.5086 18.5206 19.6375L31.3556 22.7814C31.3563 22.7814 31.357 22.7818 31.3581 22.7818C31.4343 22.8005 31.5109 22.8093 31.5863 22.8093C32.0243 22.8093 32.4238 22.5108 32.5333 22.067L35.6769 9.23345C35.7391 8.9804 35.6992 8.7182 35.5637 8.49517ZM30.9267 20.7457L19.8419 18.0306L22.557 6.9461L33.6415 9.66119L30.9267 20.7457Z" fill="#2E65B7"/>
<path d="M9.39356 36.3112L9.86194 35.147H12.4408L12.9019 36.3075C13.048 36.6752 13.4006 36.8989 13.7734 36.8989C13.8888 36.8989 14.006 36.8777 14.1191 36.8326C14.6003 36.6415 14.8354 36.0962 14.6443 35.6154L12.0361 29.0492C11.8944 28.6929 11.5502 28.4589 11.1668 28.4578C11.166 28.4578 11.1653 28.4578 11.1649 28.4578C10.7822 28.4578 10.4376 28.6903 10.2952 29.0455L8.36561 33.8425C8.36488 33.8447 8.36414 33.8469 8.36304 33.8491L7.65406 35.6113C7.46107 36.0918 7.69361 36.6378 8.17408 36.8312C8.65491 37.0242 9.20057 36.7913 9.39356 36.3112ZM11.6959 33.272H10.616L11.1594 31.921L11.6959 33.272Z" fill="#2E65B7"/>
<path d="M34.3447 40.2694H38.1259C38.8246 40.2694 39.4812 39.9973 39.9752 39.5033C40.4696 39.0093 40.7413 38.3523 40.7413 37.6539C40.7413 37.0153 40.5114 36.4301 40.1301 35.9756C40.5114 35.5211 40.7413 34.9355 40.7413 34.2972C40.7413 32.8551 39.568 31.6818 38.1259 31.6818H34.3447C33.8269 31.6818 33.4072 32.1014 33.4072 32.6193V39.3319C33.4072 39.8497 33.8269 40.2694 34.3447 40.2694ZM38.6495 38.1776C38.5096 38.3175 38.3236 38.3944 38.1259 38.3944H35.2822V36.9131H38.1259C38.5342 36.9131 38.8663 37.2452 38.8663 37.6539C38.8663 37.8517 38.7894 38.0377 38.6495 38.1776ZM35.2822 33.5564H38.1259C38.5342 33.5564 38.8663 33.8889 38.8663 34.2972C38.8663 34.7056 38.5342 35.0381 38.1259 35.0381L35.2822 35.0377V33.5564Z" fill="#2E65B7"/>
<path d="M25.184 17.8631L26.5383 18.1948C26.773 18.2523 27.01 18.2805 27.2458 18.2805C27.779 18.2805 28.3038 18.1351 28.7714 17.8513C29.446 17.4423 29.9206 16.7952 30.1081 16.0294C30.2311 15.5263 29.9235 15.0191 29.4203 14.8956C28.9168 14.7722 28.41 15.0806 28.2869 15.5834C28.2184 15.8628 28.0452 16.099 27.7991 16.2484C27.553 16.3975 27.2634 16.4422 26.9843 16.3737L25.6301 16.0419C25.0533 15.9005 24.6984 15.3161 24.8402 14.7389L25.4678 12.1747C25.5363 11.8953 25.7095 11.6591 25.9556 11.51C26.2017 11.3606 26.4907 11.3163 26.7705 11.3848L28.1247 11.7162C28.7015 11.8576 29.0563 12.442 28.915 13.0192C28.7916 13.522 29.0995 14.0296 29.6024 14.1526C30.1055 14.2764 30.6127 13.968 30.7361 13.4652C31.1232 11.8839 30.152 10.2825 28.5707 9.89504L27.2165 9.56326C26.4511 9.37576 25.6575 9.4977 24.983 9.90676C24.3088 10.3158 23.8342 10.9629 23.6467 11.729L23.0186 14.2929C22.6315 15.8742 23.6027 17.4756 25.184 17.8631Z" fill="#2E65B7"/>
<path d="M3.74532 32.2918C3.95772 32.6166 4.36825 32.773 4.74361 32.6825C5.11678 32.5928 5.40426 32.2757 5.45406 31.8941C5.50424 31.5103 5.30721 31.1276 4.96627 30.9452C4.60702 30.7533 4.14962 30.8203 3.86141 31.1085C3.54976 31.4206 3.50106 31.9252 3.74532 32.2918Z" fill="#2E65B7"/>
<path d="M34.8789 20.7325C35.0298 21.0947 35.3982 21.3283 35.79 21.3097C36.176 21.2913 36.5181 21.0277 36.636 20.66C36.755 20.2883 36.6268 19.8672 36.3148 19.6298C35.998 19.3889 35.556 19.375 35.2238 19.5943C34.8543 19.8386 34.7119 20.3249 34.8789 20.7325Z" fill="#2E65B7"/>
</g>
</g>
<defs>
<clipPath id="clip0">
<rect width="48.0001" height="48" fill="white" transform="translate(0 0.0102539)"/>
</clipPath>
<clipPath id="clip1">
<rect width="48.0001" height="48" fill="white" transform="translate(0 0.0102539)"/>
</clipPath>
</defs>
</svg>
