<svg width="40" height="40" viewBox="0 0 40 40" fill="none" xmlns="http://www.w3.org/2000/svg">
<rect width="40" height="40" fill="white"/>
<path d="M36.0156 23.8281C36.4471 23.8281 36.7969 23.4783 36.7969 23.0469C36.7969 22.6154 36.4471 22.2656 36.0156 22.2656C35.5842 22.2656 35.2344 22.6154 35.2344 23.0469C35.2344 23.4783 35.5842 23.8281 36.0156 23.8281Z" fill="#475976"/>
<path d="M36.7969 17.3438C37.2283 17.3438 37.5781 16.994 37.5781 16.5625V14.2188H39.2188C39.6502 14.2188 40 13.869 40 13.4375V10.3125C40 10.1562 39.9576 10.0223 39.883 9.90188C39.807 9.77899 39.6955 9.6768 39.5659 9.61258L20.3471 0.0813281C20.1283 -0.0271094 19.8716 -0.0271094 19.6529 0.0813281C19.6529 0.0813281 0.442578 9.60836 0.434141 9.61258C0.305859 9.67617 0.195312 9.77687 0.119375 9.89805C0.0433594 10.0194 0.00171875 10.1618 0.000390625 10.3049C0.000390625 10.3075 0 13.4375 0 13.4375C0 13.869 0.349766 14.2188 0.78125 14.2188H2.42188V16.5625C2.42188 16.994 2.77164 17.3438 3.20312 17.3438V29.0625C2.77164 29.0625 2.42188 29.4123 2.42188 29.8438V32.1875H1.64062C1.20914 32.1875 0.859375 32.5373 0.859375 32.9688V35.3125H0.78125C0.349766 35.3125 0 35.6623 0 36.0938V39.2188C0 39.6502 0.349766 40 0.78125 40H39.2188C39.6502 40 40 39.6502 40 39.2188V36.0938C40 35.6623 39.6502 35.3125 39.2188 35.3125H39.1406V32.9688C39.1406 32.5373 38.7908 32.1875 38.3594 32.1875H37.5781V29.8438C37.5781 29.4123 37.2283 29.0625 36.7969 29.0625V26.5625C36.7969 26.132 36.4461 25.7812 36.0156 25.7812C35.5852 25.7812 35.2344 26.132 35.2344 26.5625V29.0625H33.6719V17.3438H35.2344V19.5312C35.2344 19.9625 35.5852 20.3125 36.0156 20.3125C36.4469 20.3125 36.7969 19.9625 36.7969 19.5312V17.3438ZM4.11492 9.53125L20 1.65328L35.885 9.53125H4.11492ZM1.5625 12.6562V11.0938H38.4375V12.6562H1.5625ZM27.4219 29.0625V17.3438C27.8533 17.3438 28.2031 16.994 28.2031 16.5625V14.2188H31.3281V16.5625C31.3281 16.994 31.678 17.3438 32.1094 17.3438V29.0625C31.678 29.0625 31.3281 29.4123 31.3281 29.8438V32.1875H28.2031V29.8438C28.2031 29.4123 27.8533 29.0625 27.4219 29.0625ZM26.6406 30.625V32.1875H23.5156V30.625H26.6406ZM24.2969 29.0625V17.3438H25.8594V29.0625H24.2969ZM23.5156 15.7812V14.2188H26.6406V15.7812H23.5156ZM17.2656 29.0625V25.5469C17.2656 24.0391 18.4923 22.8125 20 22.8125C21.5077 22.8125 22.7344 24.0391 22.7344 25.5469V29.0625C22.303 29.0625 21.9531 29.4123 21.9531 29.8438V32.1875H18.0469V29.8438C18.0469 29.4123 17.6971 29.0625 17.2656 29.0625ZM20 21.25C18.9621 21.25 18.0091 21.6199 17.2656 22.2348V17.3438C17.6971 17.3438 18.0469 16.994 18.0469 16.5625V14.2188H21.9531V16.5625C21.9531 16.994 22.303 17.3438 22.7344 17.3438V22.2348C21.9909 21.6199 21.0379 21.25 20 21.25ZM16.4844 30.625V32.1875H13.3594V30.625H16.4844ZM14.1406 29.0625V17.3438H15.7031V29.0625H14.1406ZM13.3594 15.7812V14.2188H16.4844V15.7812H13.3594ZM7.89062 29.0625V17.3438C8.32211 17.3438 8.67188 16.994 8.67188 16.5625V14.2188H11.7969V16.5625C11.7969 16.994 12.1466 17.3438 12.5781 17.3438V29.0625C12.1466 29.0625 11.7969 29.4123 11.7969 29.8438V32.1875H8.67188V29.8438C8.67188 29.4123 8.32211 29.0625 7.89062 29.0625ZM7.10938 30.625V32.1875H3.98438V30.625H7.10938ZM4.76562 29.0625V17.3438H6.32812V29.0625H4.76562ZM3.98438 15.7812V14.2188H7.10938V15.7812H3.98438ZM38.4375 36.875V38.4375H1.5625V36.875H38.4375ZM37.5781 33.75V35.3125H2.42188V33.75H37.5781ZM36.0156 30.625V32.1875H32.8906V30.625H36.0156ZM32.8906 15.7812V14.2188H36.0156V15.7812H32.8906Z" fill="#475976"/>
</svg>
