<svg width="48" height="49" viewBox="0 0 48 49" fill="none" xmlns="http://www.w3.org/2000/svg">
<rect width="48" height="48" transform="translate(0 0.0102539)" fill="white"/>
<g clip-path="url(#clip0)">
<path d="M43.2188 28.604C43.7365 28.604 44.1562 28.1843 44.1562 27.6665C44.1562 27.1487 43.7365 26.729 43.2188 26.729C42.701 26.729 42.2812 27.1487 42.2812 27.6665C42.2812 28.1843 42.701 28.604 43.2188 28.604Z" fill="#2E65B7"/>
<path d="M44.1562 20.8228C44.6739 20.8228 45.0938 20.403 45.0938 19.8853V17.0728H47.0625C47.5802 17.0728 48 16.653 48 16.1353V12.3853C48 12.1978 47.9491 12.0371 47.8596 11.8925C47.7683 11.745 47.6346 11.6224 47.479 11.5453L24.4165 0.107848C24.1539 -0.0222773 23.8459 -0.0222773 23.5835 0.107848C23.5835 0.107848 0.531094 11.5403 0.520969 11.5453C0.367031 11.6217 0.234375 11.7425 0.14325 11.8879C0.0520312 12.0335 0.0020625 12.2044 0.00046875 12.3762C0.00046875 12.3793 0 16.1353 0 16.1353C0 16.653 0.419719 17.0728 0.9375 17.0728H2.90625V19.8853C2.90625 20.403 3.32597 20.8228 3.84375 20.8228V34.8853C3.32597 34.8853 2.90625 35.305 2.90625 35.8228V38.6353H1.96875C1.45097 38.6353 1.03125 39.055 1.03125 39.5728V42.3853H0.9375C0.419719 42.3853 0 42.805 0 43.3228V47.0728C0 47.5905 0.419719 48.0103 0.9375 48.0103H47.0625C47.5802 48.0103 48 47.5905 48 47.0728V43.3228C48 42.805 47.5802 42.3853 47.0625 42.3853H46.9688V39.5728C46.9688 39.055 46.5489 38.6353 46.0312 38.6353H45.0938V35.8228C45.0938 35.305 44.6739 34.8853 44.1562 34.8853V31.8853C44.1562 31.3687 43.7353 30.9478 43.2188 30.9478C42.7022 30.9478 42.2812 31.3687 42.2812 31.8853V34.8853H40.4062V20.8228H42.2812V23.4478C42.2812 23.9653 42.7022 24.3853 43.2188 24.3853C43.7363 24.3853 44.1562 23.9653 44.1562 23.4478V20.8228ZM4.93791 11.4478L24 1.99419L43.062 11.4478H4.93791ZM1.875 15.1978V13.3228H46.125V15.1978H1.875ZM32.9062 34.8853V20.8228C33.4239 20.8228 33.8438 20.403 33.8438 19.8853V17.0728H37.5938V19.8853C37.5938 20.403 38.0136 20.8228 38.5312 20.8228V34.8853C38.0136 34.8853 37.5938 35.305 37.5938 35.8228V38.6353H33.8438V35.8228C33.8438 35.305 33.4239 34.8853 32.9062 34.8853ZM31.9688 36.7603V38.6353H28.2188V36.7603H31.9688ZM29.1562 34.8853V20.8228H31.0312V34.8853H29.1562ZM28.2188 18.9478V17.0728H31.9688V18.9478H28.2188ZM20.7188 34.8853V30.6665C20.7188 28.8572 22.1907 27.3853 24 27.3853C25.8093 27.3853 27.2812 28.8572 27.2812 30.6665V34.8853C26.7636 34.8853 26.3438 35.305 26.3438 35.8228V38.6353H21.6562V35.8228C21.6562 35.305 21.2365 34.8853 20.7188 34.8853ZM24 25.5103C22.7545 25.5103 21.6109 25.9542 20.7188 26.692V20.8228C21.2365 20.8228 21.6562 20.403 21.6562 19.8853V17.0728H26.3438V19.8853C26.3438 20.403 26.7636 20.8228 27.2812 20.8228V26.692C26.3891 25.9542 25.2455 25.5103 24 25.5103ZM19.7812 36.7603V38.6353H16.0312V36.7603H19.7812ZM16.9688 34.8853V20.8228H18.8438V34.8853H16.9688ZM16.0312 18.9478V17.0728H19.7812V18.9478H16.0312ZM9.46875 34.8853V20.8228C9.98653 20.8228 10.4062 20.403 10.4062 19.8853V17.0728H14.1562V19.8853C14.1562 20.403 14.576 20.8228 15.0938 20.8228V34.8853C14.576 34.8853 14.1562 35.305 14.1562 35.8228V38.6353H10.4062V35.8228C10.4062 35.305 9.98653 34.8853 9.46875 34.8853ZM8.53125 36.7603V38.6353H4.78125V36.7603H8.53125ZM5.71875 34.8853V20.8228H7.59375V34.8853H5.71875ZM4.78125 18.9478V17.0728H8.53125V18.9478H4.78125ZM46.125 44.2603V46.1353H1.875V44.2603H46.125ZM45.0938 40.5103V42.3853H2.90625V40.5103H45.0938ZM43.2188 36.7603V38.6353H39.4688V36.7603H43.2188ZM39.4688 18.9478V17.0728H43.2188V18.9478H39.4688Z" fill="#2E65B7"/>
</g>
<defs>
<clipPath id="clip0">
<rect width="48" height="48" fill="white" transform="translate(0 0.0102539)"/>
</clipPath>
</defs>
</svg>
