<svg width="48" height="49" viewBox="0 0 48 49" fill="none" xmlns="http://www.w3.org/2000/svg">
<rect width="48.0001" height="48" transform="translate(0 0.0102539)" fill="white"/>
<mask id="path-1-outside-1" maskUnits="userSpaceOnUse" x="2" y="2.01025" width="44" height="44" fill="black">
<rect fill="white" x="2" y="2.01025" width="44" height="44"/>
<path d="M24.0939 32.4291C25.7128 32.4291 27.0299 31.1116 27.0299 29.4923C27.0299 27.8729 25.7129 26.5553 24.0939 26.5553C22.4752 26.5553 21.1582 27.8728 21.1582 29.4923C21.1583 31.1116 22.4753 32.4291 24.0939 32.4291ZM24.0939 27.903C24.97 27.903 25.6826 28.616 25.6826 29.4923C25.6826 30.3685 24.97 31.0813 24.0939 31.0813C23.218 31.0813 22.5055 30.3684 22.5055 29.4923C22.5055 28.616 23.218 27.903 24.0939 27.903Z"/>
<path d="M37.1175 12.7446C39.8004 12.7446 41.9831 10.5612 41.9831 7.87753C41.9832 5.19363 39.8004 3.01025 37.1175 3.01025C34.4348 3.01025 32.2523 5.19363 32.2523 7.87744C32.2523 10.5612 34.4349 12.7446 37.1175 12.7446ZM37.1175 4.358C39.0576 4.358 40.6358 5.93682 40.6358 7.87744C40.6358 9.81806 39.0576 11.3968 37.1175 11.3968C35.1777 11.3968 33.5996 9.81806 33.5996 7.87744C33.5996 5.93682 35.1777 4.358 37.1175 4.358Z"/>
<path d="M44.3261 20.2359C43.9541 20.2359 43.6526 20.5375 43.6526 20.9097V28.1303C43.6526 28.3703 43.4574 28.5655 43.2176 28.5655H41.5741V18.671C41.5741 18.2988 41.2726 17.9972 40.9005 17.9972C40.5284 17.9972 40.2269 18.2988 40.2269 18.671V43.2273C40.2269 43.4672 40.0317 43.6624 39.7919 43.6624H38.2264C37.9866 43.6624 37.7914 43.4672 37.7914 43.2273V34.5072C37.7914 34.135 37.4899 33.8333 37.1178 33.8333C36.7457 33.8333 36.4442 34.135 36.4442 34.5072V43.2273C36.4442 43.4672 36.2491 43.6624 36.0093 43.6624H34.4438C34.204 43.6624 34.0088 43.4672 34.0088 43.2273V18.671C34.0088 18.2988 33.7073 17.9972 33.3352 17.9972C32.9632 17.9972 32.6617 18.2988 32.6617 18.671V28.5656H31.0181C30.7784 28.5656 30.5832 28.3705 30.5832 28.131V18.6689C30.5832 16.4558 32.383 14.6553 34.5953 14.6553H39.6407C41.853 14.6553 43.6528 16.4558 43.6528 18.6689C43.6528 19.0411 43.9543 19.3427 44.3264 19.3427C44.6985 19.3427 45 19.0411 45 18.6689C45 15.7127 42.5958 13.3076 39.6406 13.3076H34.5948C31.6397 13.3076 29.2355 15.7127 29.2355 18.6689V28.1312C29.2359 29.114 30.0354 29.9134 31.0177 29.9134H32.6612V43.2273C32.6612 44.2104 33.4607 45.0102 34.4434 45.0102H36.0089C36.4279 45.0102 36.8129 44.8638 37.1175 44.6208C37.4222 44.8638 37.8072 45.0102 38.2263 45.0102H39.7918C40.7745 45.0102 41.574 44.2105 41.574 43.2273V29.9133H43.2175C44.2002 29.9133 44.9997 29.1134 44.9997 28.1303V20.9097C44.9998 20.5375 44.6982 20.2359 44.3261 20.2359Z"/>
<path d="M10.003 16.8637C12.6859 16.8637 14.8685 14.6803 14.8685 11.9966C14.8685 9.31278 12.6859 7.1294 10.003 7.1294C7.32028 7.1294 5.13777 9.31278 5.13777 11.9966C5.13786 14.6803 7.32028 16.8637 10.003 16.8637ZM10.003 8.47715C11.943 8.47715 13.5213 10.056 13.5213 11.9966C13.5213 13.9372 11.943 15.5159 10.003 15.5159C8.06319 15.5159 6.48503 13.9372 6.48503 11.9966C6.48512 10.056 8.06328 8.47715 10.003 8.47715Z"/>
<path d="M12.2184 17.4964H7.7881C5.14792 17.4964 3 19.6451 3 22.2862V30.3509C3.00027 31.2591 3.73906 31.9978 4.64705 31.9978H4.66743L4.20113 35.2433C4.1803 35.4337 4.24128 35.624 4.36899 35.7666C4.49679 35.9092 4.6792 35.9907 4.87068 35.9907H6.00813V43.3626C6.00813 44.2711 6.7471 45.0103 7.65518 45.0103H9.02983C9.39419 45.0103 9.73018 44.8899 10.0033 44.6887C10.2764 44.8899 10.6123 45.0103 10.9768 45.0103H12.3515C13.2597 45.0103 13.9985 44.2711 13.9985 43.3626V41.6417C13.9985 41.2695 13.697 40.9679 13.325 40.9679C12.9529 40.9679 12.6514 41.2695 12.6514 41.6417V43.3626C12.6514 43.528 12.5169 43.6625 12.3516 43.6625H10.9769C10.8116 43.6625 10.6771 43.528 10.6771 43.3626V37.1652C10.6771 36.7929 10.3756 36.4913 10.0035 36.4913C9.63139 36.4913 9.32989 36.7929 9.32989 37.1652V43.3626C9.32989 43.528 9.19544 43.6625 9.0301 43.6625H7.65509C7.48975 43.6625 7.3553 43.528 7.3553 43.3626V35.9907H12.6511V39.4848C12.6511 39.8569 12.9526 40.1586 13.3247 40.1586C13.6968 40.1586 13.9983 39.8569 13.9983 39.4848V35.9907H15.1356C15.3271 35.9907 15.5095 35.9092 15.6372 35.7666C15.765 35.624 15.826 35.4337 15.8052 35.2433L15.3389 31.9978H15.3593C16.2674 31.9978 17.0063 31.2589 17.0063 30.3503V22.2861C17.0063 19.6451 14.8584 17.4964 12.2184 17.4964ZM15.6592 30.3502C15.6591 30.5155 15.5246 30.65 15.3593 30.65H15.1909L13.9577 21.4235C13.917 21.0537 13.5842 20.7878 13.2145 20.8273C12.8447 20.8679 12.5779 21.2008 12.6185 21.5707L14.384 34.6429H5.6224L7.3879 21.5707C7.4285 21.2008 7.16167 20.8679 6.79192 20.8273C6.42145 20.7877 6.08932 21.0537 6.04873 21.4235L4.81553 30.65H4.64714C4.48188 30.65 4.34744 30.5156 4.34735 30.3506V22.2861C4.34735 20.3882 5.89093 18.844 7.78819 18.844H12.2184C14.1156 18.844 15.6592 20.3882 15.6592 22.2861V30.3502Z"/>
<path d="M29.1991 30.1879C28.7171 30.203 28.2696 30.4051 27.9397 30.7567L25.4275 33.433H22.827L20.3147 30.7567C19.6331 30.0309 18.4884 29.9949 17.7623 30.6765C17.0369 31.3582 17.0007 32.5035 17.6821 33.2296L20.5947 36.3324V43.2492C20.5947 44.2203 21.3844 45.0102 22.3551 45.0102H25.8991C26.8698 45.0102 27.6594 44.2203 27.6594 43.2492V41.5514C27.6594 41.1791 27.3579 40.8775 26.9858 40.8775C26.6137 40.8775 26.3122 41.1791 26.3122 41.5514V43.2492C26.3122 43.4771 26.1269 43.6624 25.8992 43.6624H24.7691V40.042C24.7691 39.6698 24.4676 39.3682 24.0955 39.3682C23.7235 39.3682 23.4219 39.6698 23.4219 40.042V43.6624H22.3552C22.1274 43.6624 21.9421 43.4771 21.9421 43.2492V36.0656C21.9421 35.8943 21.8768 35.7293 21.7596 35.6043L18.6645 32.3072C18.4915 32.1228 18.5007 31.8321 18.6848 31.659C18.8691 31.486 19.1597 31.4953 19.3327 31.6794L22.0444 34.5683C22.1717 34.7039 22.3494 34.7808 22.5355 34.7808H25.719C25.905 34.7808 26.0827 34.7038 26.2101 34.5683L28.9217 31.6794C29.0948 31.4951 29.3854 31.4861 29.5695 31.659C29.7538 31.8321 29.7628 32.1228 29.5899 32.3071L26.4947 35.6043C26.3773 35.7292 26.3121 35.8942 26.3121 36.0655V39.305C26.3121 39.6771 26.6136 39.9788 26.9857 39.9788C27.3578 39.9788 27.6593 39.6771 27.6593 39.305V36.3323L30.572 33.2296C31.2534 32.5036 31.2173 31.3583 30.4916 30.6764C30.1403 30.3462 29.6816 30.1737 29.1991 30.1879Z"/>
</mask>
<path d="M24.0939 32.4291C25.7128 32.4291 27.0299 31.1116 27.0299 29.4923C27.0299 27.8729 25.7129 26.5553 24.0939 26.5553C22.4752 26.5553 21.1582 27.8728 21.1582 29.4923C21.1583 31.1116 22.4753 32.4291 24.0939 32.4291ZM24.0939 27.903C24.97 27.903 25.6826 28.616 25.6826 29.4923C25.6826 30.3685 24.97 31.0813 24.0939 31.0813C23.218 31.0813 22.5055 30.3684 22.5055 29.4923C22.5055 28.616 23.218 27.903 24.0939 27.903Z" fill="#2E65B7"/>
<path d="M37.1175 12.7446C39.8004 12.7446 41.9831 10.5612 41.9831 7.87753C41.9832 5.19363 39.8004 3.01025 37.1175 3.01025C34.4348 3.01025 32.2523 5.19363 32.2523 7.87744C32.2523 10.5612 34.4349 12.7446 37.1175 12.7446ZM37.1175 4.358C39.0576 4.358 40.6358 5.93682 40.6358 7.87744C40.6358 9.81806 39.0576 11.3968 37.1175 11.3968C35.1777 11.3968 33.5996 9.81806 33.5996 7.87744C33.5996 5.93682 35.1777 4.358 37.1175 4.358Z" fill="#2E65B7"/>
<path d="M44.3261 20.2359C43.9541 20.2359 43.6526 20.5375 43.6526 20.9097V28.1303C43.6526 28.3703 43.4574 28.5655 43.2176 28.5655H41.5741V18.671C41.5741 18.2988 41.2726 17.9972 40.9005 17.9972C40.5284 17.9972 40.2269 18.2988 40.2269 18.671V43.2273C40.2269 43.4672 40.0317 43.6624 39.7919 43.6624H38.2264C37.9866 43.6624 37.7914 43.4672 37.7914 43.2273V34.5072C37.7914 34.135 37.4899 33.8333 37.1178 33.8333C36.7457 33.8333 36.4442 34.135 36.4442 34.5072V43.2273C36.4442 43.4672 36.2491 43.6624 36.0093 43.6624H34.4438C34.204 43.6624 34.0088 43.4672 34.0088 43.2273V18.671C34.0088 18.2988 33.7073 17.9972 33.3352 17.9972C32.9632 17.9972 32.6617 18.2988 32.6617 18.671V28.5656H31.0181C30.7784 28.5656 30.5832 28.3705 30.5832 28.131V18.6689C30.5832 16.4558 32.383 14.6553 34.5953 14.6553H39.6407C41.853 14.6553 43.6528 16.4558 43.6528 18.6689C43.6528 19.0411 43.9543 19.3427 44.3264 19.3427C44.6985 19.3427 45 19.0411 45 18.6689C45 15.7127 42.5958 13.3076 39.6406 13.3076H34.5948C31.6397 13.3076 29.2355 15.7127 29.2355 18.6689V28.1312C29.2359 29.114 30.0354 29.9134 31.0177 29.9134H32.6612V43.2273C32.6612 44.2104 33.4607 45.0102 34.4434 45.0102H36.0089C36.4279 45.0102 36.8129 44.8638 37.1175 44.6208C37.4222 44.8638 37.8072 45.0102 38.2263 45.0102H39.7918C40.7745 45.0102 41.574 44.2105 41.574 43.2273V29.9133H43.2175C44.2002 29.9133 44.9997 29.1134 44.9997 28.1303V20.9097C44.9998 20.5375 44.6982 20.2359 44.3261 20.2359Z" fill="#2E65B7"/>
<path d="M10.003 16.8637C12.6859 16.8637 14.8685 14.6803 14.8685 11.9966C14.8685 9.31278 12.6859 7.1294 10.003 7.1294C7.32028 7.1294 5.13777 9.31278 5.13777 11.9966C5.13786 14.6803 7.32028 16.8637 10.003 16.8637ZM10.003 8.47715C11.943 8.47715 13.5213 10.056 13.5213 11.9966C13.5213 13.9372 11.943 15.5159 10.003 15.5159C8.06319 15.5159 6.48503 13.9372 6.48503 11.9966C6.48512 10.056 8.06328 8.47715 10.003 8.47715Z" fill="#2E65B7"/>
<path d="M12.2184 17.4964H7.7881C5.14792 17.4964 3 19.6451 3 22.2862V30.3509C3.00027 31.2591 3.73906 31.9978 4.64705 31.9978H4.66743L4.20113 35.2433C4.1803 35.4337 4.24128 35.624 4.36899 35.7666C4.49679 35.9092 4.6792 35.9907 4.87068 35.9907H6.00813V43.3626C6.00813 44.2711 6.7471 45.0103 7.65518 45.0103H9.02983C9.39419 45.0103 9.73018 44.8899 10.0033 44.6887C10.2764 44.8899 10.6123 45.0103 10.9768 45.0103H12.3515C13.2597 45.0103 13.9985 44.2711 13.9985 43.3626V41.6417C13.9985 41.2695 13.697 40.9679 13.325 40.9679C12.9529 40.9679 12.6514 41.2695 12.6514 41.6417V43.3626C12.6514 43.528 12.5169 43.6625 12.3516 43.6625H10.9769C10.8116 43.6625 10.6771 43.528 10.6771 43.3626V37.1652C10.6771 36.7929 10.3756 36.4913 10.0035 36.4913C9.63139 36.4913 9.32989 36.7929 9.32989 37.1652V43.3626C9.32989 43.528 9.19544 43.6625 9.0301 43.6625H7.65509C7.48975 43.6625 7.3553 43.528 7.3553 43.3626V35.9907H12.6511V39.4848C12.6511 39.8569 12.9526 40.1586 13.3247 40.1586C13.6968 40.1586 13.9983 39.8569 13.9983 39.4848V35.9907H15.1356C15.3271 35.9907 15.5095 35.9092 15.6372 35.7666C15.765 35.624 15.826 35.4337 15.8052 35.2433L15.3389 31.9978H15.3593C16.2674 31.9978 17.0063 31.2589 17.0063 30.3503V22.2861C17.0063 19.6451 14.8584 17.4964 12.2184 17.4964ZM15.6592 30.3502C15.6591 30.5155 15.5246 30.65 15.3593 30.65H15.1909L13.9577 21.4235C13.917 21.0537 13.5842 20.7878 13.2145 20.8273C12.8447 20.8679 12.5779 21.2008 12.6185 21.5707L14.384 34.6429H5.6224L7.3879 21.5707C7.4285 21.2008 7.16167 20.8679 6.79192 20.8273C6.42145 20.7877 6.08932 21.0537 6.04873 21.4235L4.81553 30.65H4.64714C4.48188 30.65 4.34744 30.5156 4.34735 30.3506V22.2861C4.34735 20.3882 5.89093 18.844 7.78819 18.844H12.2184C14.1156 18.844 15.6592 20.3882 15.6592 22.2861V30.3502Z" fill="#2E65B7"/>
<path d="M29.1991 30.1879C28.7171 30.203 28.2696 30.4051 27.9397 30.7567L25.4275 33.433H22.827L20.3147 30.7567C19.6331 30.0309 18.4884 29.9949 17.7623 30.6765C17.0369 31.3582 17.0007 32.5035 17.6821 33.2296L20.5947 36.3324V43.2492C20.5947 44.2203 21.3844 45.0102 22.3551 45.0102H25.8991C26.8698 45.0102 27.6594 44.2203 27.6594 43.2492V41.5514C27.6594 41.1791 27.3579 40.8775 26.9858 40.8775C26.6137 40.8775 26.3122 41.1791 26.3122 41.5514V43.2492C26.3122 43.4771 26.1269 43.6624 25.8992 43.6624H24.7691V40.042C24.7691 39.6698 24.4676 39.3682 24.0955 39.3682C23.7235 39.3682 23.4219 39.6698 23.4219 40.042V43.6624H22.3552C22.1274 43.6624 21.9421 43.4771 21.9421 43.2492V36.0656C21.9421 35.8943 21.8768 35.7293 21.7596 35.6043L18.6645 32.3072C18.4915 32.1228 18.5007 31.8321 18.6848 31.659C18.8691 31.486 19.1597 31.4953 19.3327 31.6794L22.0444 34.5683C22.1717 34.7039 22.3494 34.7808 22.5355 34.7808H25.719C25.905 34.7808 26.0827 34.7038 26.2101 34.5683L28.9217 31.6794C29.0948 31.4951 29.3854 31.4861 29.5695 31.659C29.7538 31.8321 29.7628 32.1228 29.5899 32.3071L26.4947 35.6043C26.3773 35.7292 26.3121 35.8942 26.3121 36.0655V39.305C26.3121 39.6771 26.6136 39.9788 26.9857 39.9788C27.3578 39.9788 27.6593 39.6771 27.6593 39.305V36.3323L30.572 33.2296C31.2534 32.5036 31.2173 31.3583 30.4916 30.6764C30.1403 30.3462 29.6816 30.1737 29.1991 30.1879Z" fill="#2E65B7"/>
<path d="M24.0939 32.4291C25.7128 32.4291 27.0299 31.1116 27.0299 29.4923C27.0299 27.8729 25.7129 26.5553 24.0939 26.5553C22.4752 26.5553 21.1582 27.8728 21.1582 29.4923C21.1583 31.1116 22.4753 32.4291 24.0939 32.4291ZM24.0939 27.903C24.97 27.903 25.6826 28.616 25.6826 29.4923C25.6826 30.3685 24.97 31.0813 24.0939 31.0813C23.218 31.0813 22.5055 30.3684 22.5055 29.4923C22.5055 28.616 23.218 27.903 24.0939 27.903Z" stroke="#2E65B7" stroke-width="0.4" mask="url(#path-1-outside-1)"/>
<path d="M37.1175 12.7446C39.8004 12.7446 41.9831 10.5612 41.9831 7.87753C41.9832 5.19363 39.8004 3.01025 37.1175 3.01025C34.4348 3.01025 32.2523 5.19363 32.2523 7.87744C32.2523 10.5612 34.4349 12.7446 37.1175 12.7446ZM37.1175 4.358C39.0576 4.358 40.6358 5.93682 40.6358 7.87744C40.6358 9.81806 39.0576 11.3968 37.1175 11.3968C35.1777 11.3968 33.5996 9.81806 33.5996 7.87744C33.5996 5.93682 35.1777 4.358 37.1175 4.358Z" stroke="#2E65B7" stroke-width="0.4" mask="url(#path-1-outside-1)"/>
<path d="M44.3261 20.2359C43.9541 20.2359 43.6526 20.5375 43.6526 20.9097V28.1303C43.6526 28.3703 43.4574 28.5655 43.2176 28.5655H41.5741V18.671C41.5741 18.2988 41.2726 17.9972 40.9005 17.9972C40.5284 17.9972 40.2269 18.2988 40.2269 18.671V43.2273C40.2269 43.4672 40.0317 43.6624 39.7919 43.6624H38.2264C37.9866 43.6624 37.7914 43.4672 37.7914 43.2273V34.5072C37.7914 34.135 37.4899 33.8333 37.1178 33.8333C36.7457 33.8333 36.4442 34.135 36.4442 34.5072V43.2273C36.4442 43.4672 36.2491 43.6624 36.0093 43.6624H34.4438C34.204 43.6624 34.0088 43.4672 34.0088 43.2273V18.671C34.0088 18.2988 33.7073 17.9972 33.3352 17.9972C32.9632 17.9972 32.6617 18.2988 32.6617 18.671V28.5656H31.0181C30.7784 28.5656 30.5832 28.3705 30.5832 28.131V18.6689C30.5832 16.4558 32.383 14.6553 34.5953 14.6553H39.6407C41.853 14.6553 43.6528 16.4558 43.6528 18.6689C43.6528 19.0411 43.9543 19.3427 44.3264 19.3427C44.6985 19.3427 45 19.0411 45 18.6689C45 15.7127 42.5958 13.3076 39.6406 13.3076H34.5948C31.6397 13.3076 29.2355 15.7127 29.2355 18.6689V28.1312C29.2359 29.114 30.0354 29.9134 31.0177 29.9134H32.6612V43.2273C32.6612 44.2104 33.4607 45.0102 34.4434 45.0102H36.0089C36.4279 45.0102 36.8129 44.8638 37.1175 44.6208C37.4222 44.8638 37.8072 45.0102 38.2263 45.0102H39.7918C40.7745 45.0102 41.574 44.2105 41.574 43.2273V29.9133H43.2175C44.2002 29.9133 44.9997 29.1134 44.9997 28.1303V20.9097C44.9998 20.5375 44.6982 20.2359 44.3261 20.2359Z" stroke="#2E65B7" stroke-width="0.4" mask="url(#path-1-outside-1)"/>
<path d="M10.003 16.8637C12.6859 16.8637 14.8685 14.6803 14.8685 11.9966C14.8685 9.31278 12.6859 7.1294 10.003 7.1294C7.32028 7.1294 5.13777 9.31278 5.13777 11.9966C5.13786 14.6803 7.32028 16.8637 10.003 16.8637ZM10.003 8.47715C11.943 8.47715 13.5213 10.056 13.5213 11.9966C13.5213 13.9372 11.943 15.5159 10.003 15.5159C8.06319 15.5159 6.48503 13.9372 6.48503 11.9966C6.48512 10.056 8.06328 8.47715 10.003 8.47715Z" stroke="#2E65B7" stroke-width="0.4" mask="url(#path-1-outside-1)"/>
<path d="M12.2184 17.4964H7.7881C5.14792 17.4964 3 19.6451 3 22.2862V30.3509C3.00027 31.2591 3.73906 31.9978 4.64705 31.9978H4.66743L4.20113 35.2433C4.1803 35.4337 4.24128 35.624 4.36899 35.7666C4.49679 35.9092 4.6792 35.9907 4.87068 35.9907H6.00813V43.3626C6.00813 44.2711 6.7471 45.0103 7.65518 45.0103H9.02983C9.39419 45.0103 9.73018 44.8899 10.0033 44.6887C10.2764 44.8899 10.6123 45.0103 10.9768 45.0103H12.3515C13.2597 45.0103 13.9985 44.2711 13.9985 43.3626V41.6417C13.9985 41.2695 13.697 40.9679 13.325 40.9679C12.9529 40.9679 12.6514 41.2695 12.6514 41.6417V43.3626C12.6514 43.528 12.5169 43.6625 12.3516 43.6625H10.9769C10.8116 43.6625 10.6771 43.528 10.6771 43.3626V37.1652C10.6771 36.7929 10.3756 36.4913 10.0035 36.4913C9.63139 36.4913 9.32989 36.7929 9.32989 37.1652V43.3626C9.32989 43.528 9.19544 43.6625 9.0301 43.6625H7.65509C7.48975 43.6625 7.3553 43.528 7.3553 43.3626V35.9907H12.6511V39.4848C12.6511 39.8569 12.9526 40.1586 13.3247 40.1586C13.6968 40.1586 13.9983 39.8569 13.9983 39.4848V35.9907H15.1356C15.3271 35.9907 15.5095 35.9092 15.6372 35.7666C15.765 35.624 15.826 35.4337 15.8052 35.2433L15.3389 31.9978H15.3593C16.2674 31.9978 17.0063 31.2589 17.0063 30.3503V22.2861C17.0063 19.6451 14.8584 17.4964 12.2184 17.4964ZM15.6592 30.3502C15.6591 30.5155 15.5246 30.65 15.3593 30.65H15.1909L13.9577 21.4235C13.917 21.0537 13.5842 20.7878 13.2145 20.8273C12.8447 20.8679 12.5779 21.2008 12.6185 21.5707L14.384 34.6429H5.6224L7.3879 21.5707C7.4285 21.2008 7.16167 20.8679 6.79192 20.8273C6.42145 20.7877 6.08932 21.0537 6.04873 21.4235L4.81553 30.65H4.64714C4.48188 30.65 4.34744 30.5156 4.34735 30.3506V22.2861C4.34735 20.3882 5.89093 18.844 7.78819 18.844H12.2184C14.1156 18.844 15.6592 20.3882 15.6592 22.2861V30.3502Z" stroke="#2E65B7" stroke-width="0.4" mask="url(#path-1-outside-1)"/>
<path d="M29.1991 30.1879C28.7171 30.203 28.2696 30.4051 27.9397 30.7567L25.4275 33.433H22.827L20.3147 30.7567C19.6331 30.0309 18.4884 29.9949 17.7623 30.6765C17.0369 31.3582 17.0007 32.5035 17.6821 33.2296L20.5947 36.3324V43.2492C20.5947 44.2203 21.3844 45.0102 22.3551 45.0102H25.8991C26.8698 45.0102 27.6594 44.2203 27.6594 43.2492V41.5514C27.6594 41.1791 27.3579 40.8775 26.9858 40.8775C26.6137 40.8775 26.3122 41.1791 26.3122 41.5514V43.2492C26.3122 43.4771 26.1269 43.6624 25.8992 43.6624H24.7691V40.042C24.7691 39.6698 24.4676 39.3682 24.0955 39.3682C23.7235 39.3682 23.4219 39.6698 23.4219 40.042V43.6624H22.3552C22.1274 43.6624 21.9421 43.4771 21.9421 43.2492V36.0656C21.9421 35.8943 21.8768 35.7293 21.7596 35.6043L18.6645 32.3072C18.4915 32.1228 18.5007 31.8321 18.6848 31.659C18.8691 31.486 19.1597 31.4953 19.3327 31.6794L22.0444 34.5683C22.1717 34.7039 22.3494 34.7808 22.5355 34.7808H25.719C25.905 34.7808 26.0827 34.7038 26.2101 34.5683L28.9217 31.6794C29.0948 31.4951 29.3854 31.4861 29.5695 31.659C29.7538 31.8321 29.7628 32.1228 29.5899 32.3071L26.4947 35.6043C26.3773 35.7292 26.3121 35.8942 26.3121 36.0655V39.305C26.3121 39.6771 26.6136 39.9788 26.9857 39.9788C27.3578 39.9788 27.6593 39.6771 27.6593 39.305V36.3323L30.572 33.2296C31.2534 32.5036 31.2173 31.3583 30.4916 30.6764C30.1403 30.3462 29.6816 30.1737 29.1991 30.1879Z" stroke="#2E65B7" stroke-width="0.4" mask="url(#path-1-outside-1)"/>
</svg>
