<svg width="48" height="49" viewBox="0 0 48 49" fill="none" xmlns="http://www.w3.org/2000/svg">
<rect width="48.0002" height="48" transform="translate(0 0.0102539)" fill="white"/>
<path d="M47.0626 46.1353H42.9376V38.7291C42.9376 38.2113 42.5178 37.7916 42.0001 37.7916C41.4825 37.7916 41.0626 38.2113 41.0626 38.7291V46.1353H29.8126V28.3228C29.8126 27.8051 29.3928 27.3853 28.8751 27.3853H19.1251C18.6074 27.3853 18.1876 27.8051 18.1876 28.3228V46.1353H6.93763V24.9477H7.29838C7.547 24.9477 7.78541 24.8489 7.96128 24.6731L24.0001 8.6343L40.039 24.6731C40.2149 24.8489 40.4533 24.9477 40.7019 24.9477H41.0626V31.979C41.0626 32.4968 41.4825 32.9165 42.0001 32.9165C42.5178 32.9165 42.9376 32.4968 42.9376 31.979V24.9477H47.0626C47.4419 24.9477 47.7837 24.7193 47.9288 24.369C48.0739 24.0188 47.9936 23.6155 47.7256 23.3473L24.663 0.284824C24.2969 -0.0812696 23.7034 -0.0812696 23.3371 0.284824L14.5246 9.09733C14.1585 9.46342 14.1585 10.057 14.5246 10.4231C14.8908 10.7893 15.4844 10.7893 15.8505 10.4231L24.0001 2.27354L44.7992 23.0727H41.0902L24.663 6.64558C24.2969 6.27948 23.7034 6.27948 23.3371 6.64558L6.90997 23.0727H3.20094L10.6005 15.6732C10.9666 15.3071 10.9666 14.7135 10.6005 14.3473C10.2344 13.9813 9.64081 13.9812 9.27463 14.3473L0.274622 23.3473C0.00659025 23.6155 -0.0737535 24.0187 0.0713715 24.369C0.216497 24.7194 0.558403 24.9477 0.937622 24.9477H5.06262V46.1353H0.937622C0.419934 46.1353 0.000121509 46.555 0.000121509 47.0728C0.000121509 47.5905 0.419934 48.0103 0.937622 48.0103H47.0626C47.5803 48.0103 48.0001 47.5905 48.0001 47.0728C48.0001 46.555 47.5803 46.1353 47.0626 46.1353ZM27.9376 46.1353H20.0626V29.2603H27.9376V46.1353Z" fill="#2E65B7"/>
<path d="M38.0626 27.3854H32.8126C32.2949 27.3854 31.8751 27.8051 31.8751 28.3229V37.6979C31.8751 38.2157 32.2949 38.6354 32.8126 38.6354H38.0626C38.5803 38.6354 39.0001 38.2157 39.0001 37.6979V28.3229C39.0001 27.8051 38.5803 27.3854 38.0626 27.3854ZM37.1251 36.7604H33.7501V29.2604H37.1251V36.7604Z" fill="#2E65B7"/>
<path d="M15.1876 27.3854H9.93762C9.41994 27.3854 9.00012 27.8051 9.00012 28.3229V37.6979C9.00012 38.2157 9.41994 38.6354 9.93762 38.6354H15.1876C15.7053 38.6354 16.1251 38.2157 16.1251 37.6979V28.3229C16.1251 27.8051 15.7053 27.3854 15.1876 27.3854ZM14.2501 36.7604H10.8751V29.2604H14.2501V36.7604Z" fill="#2E65B7"/>
<path d="M24.0001 15.4153C21.6222 15.4153 19.6876 17.3499 19.6876 19.7278C19.6876 22.1057 21.6222 24.0403 24.0001 24.0403C26.378 24.0403 28.3126 22.1057 28.3126 19.7278C28.3126 17.3499 26.378 15.4153 24.0001 15.4153ZM24.0001 22.1653C22.656 22.1653 21.5626 21.0718 21.5626 19.7278C21.5626 18.3838 22.656 17.2903 24.0001 17.2903C25.3442 17.2903 26.4376 18.3838 26.4376 19.7278C26.4376 21.0718 25.3442 22.1653 24.0001 22.1653Z" fill="#2E65B7"/>
<path d="M22.8816 37.0351C22.7073 36.8607 22.4653 36.7604 22.2189 36.7604C21.9723 36.7604 21.7304 36.8607 21.5561 37.0351C21.3817 37.2094 21.2814 37.4513 21.2814 37.6979C21.2814 37.9444 21.3816 38.1863 21.5561 38.3607C21.7305 38.5351 21.9723 38.6354 22.2189 38.6354C22.4654 38.6354 22.7073 38.5351 22.8816 38.3607C23.056 38.1863 23.1564 37.9444 23.1564 37.6979C23.1564 37.4513 23.0561 37.2094 22.8816 37.0351Z" fill="#2E65B7"/>
<path d="M13.1316 11.8163C12.9573 11.6419 12.7154 11.5416 12.4689 11.5416C12.2223 11.5416 11.9804 11.6419 11.8061 11.8163C11.6317 11.9907 11.5314 12.2326 11.5314 12.4791C11.5314 12.7257 11.6316 12.9676 11.8061 13.1419C11.9805 13.3163 12.2223 13.4166 12.4689 13.4166C12.7154 13.4166 12.9573 13.3163 13.1316 13.1419C13.306 12.9676 13.4064 12.7257 13.4064 12.4791C13.4064 12.2326 13.3061 11.9907 13.1316 11.8163Z" fill="#2E65B7"/>
<path d="M42.6628 34.4408C42.4886 34.2665 42.2466 34.1661 42.0001 34.1661C41.7536 34.1661 41.5117 34.2665 41.3373 34.4408C41.1629 34.6161 41.0626 34.8571 41.0626 35.1036C41.0626 35.3502 41.1628 35.5921 41.3373 35.7674C41.5117 35.9418 41.7536 36.0411 42.0001 36.0411C42.2467 36.0411 42.4886 35.9418 42.6628 35.7674C42.8372 35.5921 42.9376 35.3511 42.9376 35.1036C42.9376 34.8571 42.8373 34.6152 42.6628 34.4408Z" fill="#2E65B7"/>
</svg>
