<svg width="48" height="49" viewBox="0 0 48 49" fill="none" xmlns="http://www.w3.org/2000/svg">
<rect width="48" height="48" transform="translate(0 0.0102539)" fill="white"/>
<path d="M48 34.0499C48 34.0261 47.9989 34.0023 47.9967 33.9789C47.8348 32.3712 47.1405 31.1111 45.9324 30.2333C45.0125 29.5649 43.834 29.1255 42.2234 28.8505C39.2901 28.3506 37.5663 27.9745 36.7072 27.6442L36.4138 26.8795L36.5296 26.8517C37.0829 26.7199 37.552 26.38 37.8501 25.8955C38.1482 25.4107 38.2394 24.8386 38.1076 24.2853C37.9757 23.732 37.6359 23.2628 37.151 22.9647C36.6662 22.6666 36.0941 22.5751 35.5412 22.7073L34.8736 22.8662L34.5509 22.0254L34.9611 21.9276C35.5148 21.7958 35.9836 21.456 36.2816 20.9711C36.5797 20.4866 36.6713 19.9146 36.5395 19.3612C36.4073 18.8079 36.0678 18.3388 35.5829 18.0407C35.0981 17.7426 34.5264 17.6514 33.9727 17.7832L32.7159 18.0828C32.5379 17.9023 32.3416 17.7411 32.1303 17.6016C32.257 16.7546 32.7188 15.5523 34.2287 14.7814C35.5067 14.1274 36.015 12.5556 35.3614 11.2779C34.7077 9.99944 33.1359 9.49077 31.8578 10.1441C28.8575 11.6778 27.6739 14.053 27.2092 15.7753C27.1308 16.0657 27.0678 16.3623 27.018 16.6615L25.6597 16.5271C23.353 16.299 21.2315 15.2571 19.6865 13.5938C18.1575 11.9477 17.3156 9.83025 17.3156 7.63226C17.3156 7.31768 17.3332 6.99579 17.368 6.67572C17.4372 6.04547 17.1094 5.45551 16.533 5.17279C15.9544 4.88861 15.2846 4.98273 14.8129 5.41083L1.46752 15.6999C1.458 15.7072 1.44921 15.7149 1.44042 15.7229C-0.275277 17.2475 -0.48658 19.8278 0.958851 21.5966L3.84971 25.1397C4.5543 26.0017 5.54966 26.5602 6.65232 26.7125C7.73594 26.8619 8.5145 27.7951 8.42478 28.8366C8.30027 30.2824 8.90781 31.6791 10.0504 32.5737L19.6627 40.0993C21.6666 41.7861 24.2289 42.8082 26.8788 42.9774C26.8939 42.9781 26.9089 42.9789 26.9239 42.9789H26.9305L38.7451 42.8737C38.9279 42.8851 39.1095 42.8906 39.2904 42.8906C42.5625 42.8902 45.5127 41.0925 46.7637 38.3393C46.8398 38.1712 47.0552 37.5816 47.0552 37.5816L47.6759 35.7367C47.8883 35.206 48 34.6362 48 34.0499ZM35.8708 24.0886C35.9261 24.0758 35.9814 24.0692 36.0366 24.0692C36.1663 24.0692 36.2941 24.1048 36.4073 24.1747C36.5691 24.2739 36.6823 24.4303 36.7262 24.6149C36.7702 24.7995 36.7398 24.9899 36.6405 25.1514C36.5409 25.3129 36.3845 25.426 36.2003 25.4704L33.5285 26.1072C33.4739 26.1204 33.4179 26.127 33.3626 26.127C33.0334 26.127 32.7495 25.9025 32.673 25.5813C32.6291 25.3967 32.6595 25.2063 32.7591 25.0444C32.8583 24.8829 33.0147 24.7698 33.1993 24.7258L35.8708 24.0886ZM33.4801 23.1987L32.8697 23.3441C32.3163 23.4763 31.8472 23.8158 31.5491 24.3007C31.251 24.7855 31.1598 25.3572 31.2917 25.9105C31.5213 26.8744 32.3731 27.5475 33.3626 27.5475C33.5288 27.5475 33.6955 27.5277 33.8581 27.4889L35.0201 27.2117L35.4591 28.3554C35.4961 28.4528 35.5544 28.5403 35.6294 28.6124L35.7572 28.7355C35.8173 28.7937 35.8876 28.8406 35.9641 28.8743C36.5797 29.1449 37.6278 29.4778 40.9376 30.0681C39.8039 31.5084 37.9285 32.2291 36.081 31.8541L33.5973 31.3502C32.7386 31.1759 32.0391 30.549 31.7725 29.7144L28.0936 18.1952L30.297 18.4131C30.5076 18.434 30.7112 18.4834 30.9039 18.557C30.5245 18.731 30.2048 19.013 29.981 19.3766C29.6829 19.8615 29.5914 20.4331 29.7232 20.9868C29.9532 21.9503 30.805 22.6234 31.7945 22.6234C31.9607 22.6234 32.1274 22.6037 32.2896 22.5648L33.1575 22.3579L33.4801 23.1987ZM14.0139 25.875C15.7808 24.1644 16.744 21.9137 16.8784 19.173L16.8787 19.1686L27.6493 21.4728L28.8545 25.247L17.9979 29.7363L14.0139 25.875ZM34.3023 19.1649C34.3576 19.1518 34.4132 19.1452 34.4685 19.1452C34.5982 19.1452 34.726 19.1807 34.8391 19.2506C35.0006 19.3499 35.1138 19.5063 35.1577 19.6908C35.2017 19.8754 35.1713 20.0658 35.0721 20.2277C34.9724 20.3892 34.8164 20.5023 34.6319 20.5463L31.9604 21.1835C31.9054 21.1963 31.8498 21.2029 31.7945 21.2029C31.4649 21.2029 31.1814 20.9788 31.1049 20.6573C31.061 20.4727 31.0913 20.2823 31.1906 20.1208C31.2902 19.9589 31.4462 19.8457 31.6308 19.8018L34.3023 19.1649ZM28.5806 16.1455C28.9703 14.7005 29.9675 12.7057 32.5046 11.409C33.085 11.1124 33.7998 11.3434 34.0968 11.925C34.3942 12.5054 34.1631 13.2199 33.5823 13.5169C31.7033 14.4767 31.028 15.9771 30.7914 17.053C30.6746 17.0299 30.5563 17.0116 30.4369 16.9999L28.4338 16.8018C28.4737 16.5802 28.5224 16.3609 28.5806 16.1455ZM15.6992 6.52154C15.7219 6.5047 15.7435 6.48602 15.764 6.46625C15.8145 6.41754 15.8698 6.42926 15.9075 6.44757C15.9617 6.4743 15.9588 6.50104 15.9566 6.52154C15.9163 6.89288 15.8958 7.26678 15.8958 7.63226C15.8958 10.1902 16.8725 12.6508 18.6464 14.5602C20.4273 16.4781 22.8688 17.6785 25.5206 17.9407L26.554 18.0429L27.1517 19.9138L16.8729 17.7148C16.7784 15.9082 16.3616 13.9443 15.6256 11.8539C15.4952 11.4841 15.0894 11.29 14.7199 11.42C14.3497 11.5503 14.1556 11.9561 14.286 12.3256C16.703 19.1895 15.0385 22.9124 12.9925 24.8848L6.12424 18.2274C5.53794 17.6598 5.19773 16.9095 5.1666 16.1144C5.12998 15.1912 5.55039 14.2808 6.29856 13.6418L12.7431 8.75835C12.8827 9.02752 13.0518 9.3659 13.2364 9.76177C13.3569 10.0199 13.6132 10.1716 13.8806 10.1716C13.9813 10.1716 14.0835 10.1503 14.1805 10.1049C14.5357 9.93902 14.6895 9.51641 14.5236 9.16119C14.2761 8.63091 14.0564 8.20062 13.8912 7.8897L15.6992 6.52154ZM38.8092 41.4547C38.792 41.4536 38.7748 41.4529 38.7576 41.4532L26.944 41.5583C24.5999 41.4031 22.3364 40.4971 20.5679 39.0051C20.5613 38.9996 20.5548 38.9941 20.5478 38.989L10.9256 31.4553C10.1624 30.8577 9.75632 29.9246 9.83981 28.9585C9.99472 27.1633 8.67966 25.5586 6.84641 25.3056C6.10008 25.2027 5.42625 24.8244 4.94981 24.2413L2.05895 20.6983C1.10021 19.5249 1.23827 17.8144 2.37132 16.7956L3.75743 15.6827C3.74534 15.8442 3.74095 16.0071 3.74717 16.1704C3.79295 17.3321 4.28624 18.4248 5.13584 19.2477L12.4762 26.3624C12.4784 26.3643 12.4802 26.3665 12.482 26.3683L20.3874 34.0305C23.4932 37.0404 27.6233 38.6979 32.0175 38.6979H39.133C39.5252 38.6979 39.843 38.38 39.843 37.9878C39.843 37.5956 39.5252 37.2777 39.133 37.2777H32.0175C28.0525 37.2777 24.174 35.7224 21.3758 33.011L19.1093 30.8137L29.2881 26.6045L30.4197 30.1465C30.8427 31.4711 31.9519 32.4657 33.3146 32.7422L35.7986 33.2461C36.2187 33.3314 36.6398 33.3728 37.0565 33.3728C39.2443 33.3728 41.3126 32.2346 42.4735 30.3431C45.1212 30.8936 46.3601 32.0306 46.5795 34.0847C46.5703 34.9292 46.2242 35.7231 45.6028 36.3237C44.9656 36.939 44.1171 37.2777 43.2136 37.2777H41.9451C41.5529 37.2777 41.235 37.5956 41.235 37.9878C41.235 38.38 41.5529 38.6979 41.9451 38.6979H43.2136C43.9087 38.6979 44.5807 38.5539 45.1952 38.2822C43.9794 40.3546 41.495 41.6264 38.8092 41.4547Z" fill="#2E65B7"/>
<path d="M12.7768 39.1142H3.89256C3.50035 39.1142 3.18248 39.4321 3.18248 39.8243C3.18248 40.2165 3.50035 40.5344 3.89256 40.5344H12.7768C13.169 40.5344 13.4869 40.2165 13.4869 39.8243C13.4869 39.4321 13.1687 39.1142 12.7768 39.1142Z" fill="#2E65B7"/>
<path d="M6.33006 33.0381C6.33006 32.6459 6.01219 32.3276 5.61997 32.3276H0.894766C0.502188 32.3276 0.184318 32.6459 0.184318 33.0381C0.184318 33.4299 0.502188 33.7482 0.894766 33.7482H5.61997C6.01219 33.7482 6.33006 33.4299 6.33006 33.0381Z" fill="#2E65B7"/>
</svg>
