<svg width="48" height="49" viewBox="0 0 48 49" fill="none" xmlns="http://www.w3.org/2000/svg">
<rect width="47.9999" height="48" transform="translate(0 0.0102539)" fill="white"/>
<path d="M41.4368 9.94812C40.9193 9.94812 40.4993 10.3681 40.4993 10.8856C40.4993 11.4031 40.9193 11.8231 41.4368 11.8231C41.9543 11.8231 42.3743 11.4031 42.3743 10.8856C42.3743 10.3681 41.9543 9.94812 41.4368 9.94812Z" fill="#2E65B7"/>
<path d="M23.9993 32.4481C23.4818 32.4481 23.0618 32.8681 23.0618 33.3856C23.0618 33.9031 23.4818 34.3231 23.9993 34.3231C24.5168 34.3231 24.9368 33.9031 24.9368 33.3856C24.9368 32.8681 24.5168 32.4481 23.9993 32.4481Z" fill="#2E65B7"/>
<path d="M37.1243 23.0731C36.6065 23.0731 36.1868 23.4928 36.1868 24.0106C36.1868 28.6631 32.4017 32.4481 27.7493 32.4481C27.2315 32.4481 26.8118 32.8678 26.8118 33.3856C26.8118 33.9034 27.2315 34.3231 27.7493 34.3231C33.4356 34.3231 38.0618 29.6969 38.0618 24.0106C38.0618 23.4928 37.642 23.0731 37.1243 23.0731Z" fill="#2E65B7"/>
<path d="M47.9009 14.216L45.5413 9.49779C44.5242 7.46229 42.4786 6.19779 40.2027 6.19779C38.3479 6.19779 36.5754 7.07754 35.4525 8.55326L32.8043 11.5333C32.0984 10.5296 31.0631 9.78504 29.8703 9.44482L25.1331 8.09107C21.5067 7.05485 17.9609 4.26166 15.4049 0.427758C15.1758 0.0840706 14.7487 -0.0691169 14.3533 0.0505081C13.9579 0.170227 13.6874 0.534727 13.6874 0.947789V5.99998C13.6874 8.34795 14.0391 10.6634 14.7338 12.8975C14.0057 13.0785 13.2716 13.2299 12.5409 13.348C11.1093 13.5801 9.65084 13.6978 8.20588 13.6978H0.937438C0.596656 13.6978 0.282688 13.8828 0.1175 14.1809C-0.0476874 14.479 -0.0381249 14.8432 0.142531 15.1322L5.75628 24.1144C8.15497 27.9517 12.286 30.3597 16.8115 30.5581L7.79441 40.7653C6.40503 42.1859 6.88803 44.5634 8.72328 45.3274L13.6876 47.7793C13.7097 47.7902 13.7321 47.8002 13.7548 47.8093C15.1906 48.383 16.8273 47.6865 17.4068 46.2523L20.871 38.0728H27.7499C35.6775 38.0728 42.3749 31.633 42.3749 24.0103V18.3853C42.3749 16.8345 43.6366 15.5728 45.1874 15.5728H47.0624C47.3874 15.5728 47.6892 15.4046 47.86 15.1281C48.0308 14.8518 48.0462 14.5066 47.9009 14.216ZM15.5624 3.74163C18.146 6.76798 21.3424 8.95798 24.6179 9.89398L29.3556 11.2478C30.2795 11.5114 31.0582 12.1466 31.5048 12.9957L29.0128 15.7999L24.6351 13.1733C22.7389 12.0356 20.4822 11.5831 18.2427 11.9455C17.5391 12.0596 17.0899 12.2028 16.5372 12.3817C15.8903 10.3153 15.5624 8.17282 15.5624 5.99998V3.74163ZM45.1874 13.6978C42.6027 13.6978 40.4999 15.8006 40.4999 18.3853V24.0103C40.4999 30.6166 34.6612 36.1978 27.7499 36.1978H20.2499C17.5789 36.1978 15.178 37.6818 13.9842 40.0704L13.7864 40.466C13.5549 40.9292 13.7427 41.4922 14.2058 41.7238C14.6689 41.9553 15.2321 41.7675 15.4635 41.3044C15.5727 41.1591 16.2835 39.047 18.7396 38.2975L15.6771 45.5287C15.6746 45.5346 15.6721 45.5404 15.6698 45.5464C15.4838 46.0119 14.9594 46.2533 14.4794 46.079C9.20225 43.4737 9.52025 43.6268 9.45687 43.6016C8.83044 43.3511 8.66563 42.5454 9.14272 42.0684C9.17506 42.036 11.1332 39.8171 19.3129 30.5585C22.7518 30.4057 25.9694 28.9916 28.4129 26.5481C28.779 26.182 28.779 25.5884 28.4129 25.2222C28.0468 24.856 27.4532 24.8561 27.087 25.2222C22.9139 29.3956 17.9601 28.6035 17.4084 28.6978C13.2908 28.6978 9.52916 26.6129 7.34619 23.1206L6.74675 22.1614L7.42353 22.4255C11.7158 24.1003 17.0755 23.5036 20.77 21.0404C21.2007 20.7531 21.3171 20.1711 21.0299 19.7403C20.7427 19.3095 20.1607 19.193 19.7298 19.4803C16.4847 21.6439 11.8131 22.1255 8.105 20.6788L5.08316 19.4999L2.62897 15.5728H8.20588C9.75106 15.5728 11.3105 15.447 12.8406 15.1989C15.9928 14.6893 17.3172 13.995 18.5427 13.7964C20.3237 13.5081 22.1427 13.8644 23.6706 14.7811L31.0176 19.1891C31.4614 19.4556 32.0374 19.3117 32.3038 18.8677C32.5703 18.4238 32.4264 17.8479 31.9825 17.5815L30.649 16.7814C37.2356 9.36795 36.8835 9.77004 36.9282 9.7107C37.6973 8.68507 38.9215 8.07279 40.2027 8.07279C41.7636 8.07279 43.1666 8.93998 43.8643 10.3362L45.5454 13.6978H45.1874Z" fill="#2E65B7"/>
</svg>
