<svg width="48" height="49" viewBox="0 0 48 49" fill="none" xmlns="http://www.w3.org/2000/svg">
<rect width="48" height="48" transform="translate(0 0.0102539)" fill="white"/>
<path d="M47.1336 7.97334C46.6552 7.97334 46.2673 8.36119 46.2673 8.83959V46.2774H39.3407V44.3268H43.4864C43.9648 44.3268 44.3527 43.9389 44.3527 43.4605V28.1437C44.3527 27.6652 43.9648 27.2774 43.4864 27.2774H39.7848V25.3628H43.4864C43.9648 25.3628 44.3527 24.975 44.3527 24.4966V4.48734C44.3527 4.00894 43.9648 3.62109 43.4864 3.62109H25.8234C25.3449 3.62109 24.9571 4.00894 24.9571 4.48734V17.0356H23.0424V4.48734C23.0424 4.00894 22.6546 3.62109 22.1762 3.62109H4.51322C4.03482 3.62109 3.64697 4.00894 3.64697 4.48734V20.7852V24.4965C3.64697 24.9749 4.03482 25.3627 4.51322 25.3627H7.6456C8.124 25.3627 8.51185 24.9749 8.51185 24.4965C8.51185 24.0181 8.124 23.6302 7.6456 23.6302H5.37947V21.6515H9.05541C12.12 21.6515 14.6132 19.1583 14.6132 16.0938V5.35359H21.3099V17.9018C21.3099 18.3802 21.6978 18.7681 22.1762 18.7681H25.8234C26.3018 18.7681 26.6896 18.3802 26.6896 17.9018V5.35359H42.6201V7.58222H40.3325C39.8541 7.58222 39.4662 7.97006 39.4662 8.44847V20.3451C39.4662 20.8235 39.8541 21.2113 40.3325 21.2113H42.6201V23.6302H38.9184C38.44 23.6302 38.0522 24.0181 38.0522 24.4965V28.1436C38.0522 28.622 38.44 29.0098 38.9184 29.0098H42.6201V42.5942H38.4743C37.9959 42.5942 37.608 42.982 37.608 43.4604V47.1437C37.608 47.6221 37.9959 48.0099 38.4743 48.0099H47.1333C47.6117 48.0099 47.9995 47.6221 47.9995 47.1437V8.83959C47.9998 8.36119 47.612 7.97334 47.1336 7.97334ZM12.8808 16.0938H12.8807C12.8807 18.203 11.1647 19.919 9.05541 19.919H5.37947V5.35359H6.01154V5.91356C6.01154 6.39197 6.39938 6.77981 6.87779 6.77981C7.35619 6.77981 7.74404 6.39197 7.74404 5.91356V5.35359H8.26379V7.64606C8.26379 8.12447 8.65163 8.51231 9.13004 8.51231C9.60844 8.51231 9.99629 8.12447 9.99629 7.64606V5.35359H10.516V5.91356C10.516 6.39197 10.9039 6.77981 11.3823 6.77981C11.8607 6.77981 12.2485 6.39197 12.2485 5.91356V5.35359H12.8807V16.0938H12.8808ZM42.6202 19.4789H41.1988V9.31472H42.6202V19.4789Z" fill="#2E65B7"/>
<path d="M47.1338 0.0102539H0.86625C0.387844 0.0102539 0 0.398098 0 0.876504V47.1439C0 47.6223 0.387844 48.0102 0.86625 48.0102H31.4971C31.9755 48.0102 32.3633 47.6223 32.3633 47.1439V43.4607C32.3633 42.9823 31.9755 42.5944 31.4971 42.5944H26.6898V34.1609C26.6898 33.6825 26.3019 33.2947 25.8235 33.2947H22.1764C21.698 33.2947 21.3101 33.6825 21.3101 34.1609V42.5944H5.37966V40.6095H8.01375C8.82778 40.6095 9.54712 40.1993 9.97809 39.5752C10.7315 39.9656 11.5972 40.1746 12.5065 40.1746C15.2086 40.1746 17.4069 38.2858 17.4069 35.9642C17.4069 35.2749 17.2097 34.5913 16.8366 33.9872C16.5852 33.5803 16.0513 33.454 15.6443 33.7055C15.2373 33.9569 15.1112 34.4907 15.3626 34.8977C15.5695 35.2327 15.6743 35.5915 15.6743 35.9642C15.6743 37.3304 14.2532 38.442 12.5065 38.442C11.7271 38.442 10.9792 38.2138 10.4002 37.8084V34.12C10.9792 33.7146 11.7271 33.4863 12.5065 33.4863C13.0109 33.4863 13.4932 33.5773 13.9399 33.7567C14.3836 33.935 14.8883 33.7195 15.0665 33.2755C15.2447 32.8315 15.0293 32.3271 14.5853 32.1489C13.9323 31.8867 13.233 31.7537 12.5063 31.7537C11.5969 31.7537 10.731 31.9628 9.97734 32.3534C9.54638 31.7298 8.82731 31.3198 8.01347 31.3198H5.37966V29.0098H29.2885C29.7669 29.0098 30.1548 28.622 30.1548 28.1436V24.4965C30.1548 24.0181 29.7669 23.6303 29.2885 23.6303H10.4178C9.93937 23.6303 9.55153 24.0181 9.55153 24.4965C9.55153 24.9749 9.93937 25.3628 10.4178 25.3628H28.4224V27.2773H4.51341C4.035 27.2773 3.64716 27.6652 3.64716 28.1436V43.4606C3.64716 43.939 4.035 44.3268 4.51341 44.3268H22.1765C22.6549 44.3268 23.0427 43.939 23.0427 43.4606V35.0271H24.9574V43.4606C24.9574 43.939 25.3452 44.3268 25.8236 44.3268H30.6309V46.2775H1.7325V1.74275H46.2675V5.75975C46.2675 6.23816 46.6553 6.626 47.1338 6.626C47.6122 6.626 48 6.23816 48 5.75975V0.876504C48 0.398098 47.6122 0.0102539 47.1338 0.0102539ZM5.37966 33.0527H8.01375V33.0526C8.3745 33.0526 8.66784 33.346 8.66784 33.7067V38.223C8.66784 38.5836 8.3745 38.8771 8.01375 38.8771H5.37966V33.0527Z" fill="#2E65B7"/>
<path d="M36.2101 7.58228H29.815C29.3366 7.58228 28.9487 7.97012 28.9487 8.44853V20.3451C28.9487 20.8235 29.3366 21.2114 29.815 21.2114H36.2101C36.6885 21.2114 37.0764 20.8235 37.0764 20.3451V17.5154V11.2783V8.44853C37.0764 7.97012 36.6885 7.58228 36.2101 7.58228ZM35.3439 16.6491H33.6915V12.1445H35.3439V16.6491ZM35.3439 10.412H32.8253C32.3469 10.412 31.959 10.7999 31.959 11.2783V17.5154C31.959 17.9938 32.3469 18.3816 32.8253 18.3816H35.3439V19.4789H30.6812V9.31478H35.3439V10.412Z" fill="#2E65B7"/>
<path d="M12.2649 36.8306C12.7433 36.8306 13.1312 36.4428 13.1312 35.9644C13.1312 35.486 12.7433 35.0981 12.2649 35.0981C11.7865 35.0981 11.3987 35.486 11.3987 35.9644C11.3987 36.4428 11.7865 36.8306 12.2649 36.8306Z" fill="#2E65B7"/>
<path d="M9.13017 17.637C9.60858 17.637 9.99642 17.2492 9.99642 16.7708C9.99642 16.2924 9.60858 15.9045 9.13017 15.9045C8.65175 15.9045 8.26392 16.2924 8.26392 16.7708C8.26392 17.2492 8.65175 17.637 9.13017 17.637Z" fill="#2E65B7"/>
</svg>
