<svg width="48" height="49" viewBox="0 0 48 49" fill="none" xmlns="http://www.w3.org/2000/svg">
<rect width="48" height="48" transform="translate(0 0.0102539)" fill="white"/>
<path d="M1.04348 10.3229C0.467165 10.3229 0 10.7426 0 11.2604V47.0727C0 47.5905 0.467165 48.0102 1.04348 48.0102C1.61979 48.0102 2.08696 47.5905 2.08696 47.0727V11.2604C2.08696 10.7426 1.61979 10.3229 1.04348 10.3229Z" fill="#2E65B7"/>
<path d="M1.04348 0.0102539C0.467165 0.0102539 0 0.429971 0 0.94775V3.76033C0 4.27811 0.467165 4.69783 1.04348 4.69783C1.61979 4.69783 2.08696 4.27811 2.08696 3.76033V0.94775C2.08696 0.429971 1.61979 0.0102539 1.04348 0.0102539Z" fill="#2E65B7"/>
<path d="M46.9566 0.0102539C46.3803 0.0102539 45.9131 0.429971 45.9131 0.94775V47.0728C45.9131 47.5905 46.3803 48.0103 46.9566 48.0103C47.5329 48.0103 48 47.5905 48 47.0728V0.94775C48 0.429971 47.5329 0.0102539 46.9566 0.0102539Z" fill="#2E65B7"/>
<path d="M42.7825 43.3226C42.2062 43.3226 41.739 43.7423 41.739 44.2601V47.0727C41.739 47.5905 42.2062 48.0102 42.7825 48.0102C43.3588 48.0102 43.826 47.5905 43.826 47.0727V44.2601C43.826 43.7423 43.3587 43.3226 42.7825 43.3226Z" fill="#2E65B7"/>
<path d="M42.7825 0.0102539C42.2062 0.0102539 41.739 0.429971 41.739 0.94775V36.7601C41.739 37.2779 42.2062 37.6976 42.7825 37.6976C43.3588 37.6976 43.826 37.2779 43.826 36.7601V0.94775C43.826 0.429971 43.3587 0.0102539 42.7825 0.0102539Z" fill="#2E65B7"/>
<path d="M5.21755 0.0102539C4.64124 0.0102539 4.17407 0.429971 4.17407 0.94775V47.0728C4.17407 47.5905 4.64124 48.0103 5.21755 48.0103C5.79386 48.0103 6.26103 47.5905 6.26103 47.0728V0.94775C6.26103 0.429971 5.79386 0.0102539 5.21755 0.0102539Z" fill="#2E65B7"/>
<path d="M26.087 17.4478H21.9131C21.3368 17.4478 20.8696 17.8675 20.8696 18.3853V29.6352C20.8696 30.153 21.3368 30.5727 21.9131 30.5727H26.087C26.6633 30.5727 27.1305 30.153 27.1305 29.6352V18.3853C27.1305 17.8675 26.6633 17.4478 26.087 17.4478ZM25.0435 28.6976H22.9566V19.3227H25.0435V28.6976Z" fill="#2E65B7"/>
<path d="M1.04348 6.57251C0.467165 6.57251 0 6.99223 0 7.51001V7.51066C0 8.02844 0.467165 8.44778 1.04348 8.44778C1.61979 8.44778 2.08696 8.02779 2.08696 7.51001C2.08696 6.99223 1.61979 6.57251 1.04348 6.57251Z" fill="#2E65B7"/>
<path d="M42.7825 39.5723C42.2062 39.5723 41.739 39.992 41.739 40.5098V40.5104C41.739 41.0282 42.2062 41.4475 42.7825 41.4475C43.3588 41.4475 43.826 41.0275 43.826 40.5098C43.826 39.992 43.3587 39.5723 42.7825 39.5723Z" fill="#2E65B7"/>
<path d="M26.087 0.0102539H21.9131C21.3368 0.0102539 20.8696 0.429971 20.8696 0.94775V12.1977C20.8696 12.7155 21.3368 13.1352 21.9131 13.1352H26.087C26.6633 13.1352 27.1305 12.7155 27.1305 12.1977V0.94775C27.1305 0.429971 26.6633 0.0102539 26.087 0.0102539ZM25.0435 11.2602H22.9566V1.88525H25.0435V11.2602Z" fill="#2E65B7"/>
<path d="M26.087 34.8853H21.9131C21.3368 34.8853 20.8696 35.305 20.8696 35.8228V47.0727C20.8696 47.5905 21.3368 48.0102 21.9131 48.0102H26.087C26.6633 48.0102 27.1305 47.5905 27.1305 47.0727V35.8228C27.1305 35.305 26.6633 34.8853 26.087 34.8853ZM25.0435 46.1351H22.9566V36.7602H25.0435V46.1351Z" fill="#2E65B7"/>
</svg>
